%TF.GenerationSoftware,KiCad,Pcbnew,(6.0.7-1)-1*%
%TF.CreationDate,2022-09-01T14:34:03+02:00*%
%TF.ProjectId,sweep_no_curve,73776565-705f-46e6-9f5f-63757276652e,rev?*%
%TF.SameCoordinates,Original*%
%TF.FileFunction,Legend,Top*%
%TF.FilePolarity,Positive*%
%FSLAX46Y46*%
G04 Gerber Fmt 4.6, Leading zero omitted, Abs format (unit mm)*
G04 Created by KiCad (PCBNEW (6.0.7-1)-1) date 2022-09-01 14:34:03*
%MOMM*%
%LPD*%
G01*
G04 APERTURE LIST*
%ADD10C,0.150000*%
%ADD11C,0.120000*%
%ADD12C,1.397000*%
G04 APERTURE END LIST*
D10*
X37514016Y-86636149D02*
X37654185Y-86691179D01*
X37699247Y-86741225D01*
X37741816Y-86838825D01*
X37734340Y-86981487D01*
X37681802Y-87074102D01*
X37631756Y-87119164D01*
X37534156Y-87161733D01*
X37153726Y-87141795D01*
X37206062Y-86143166D01*
X37538938Y-86160611D01*
X37631554Y-86213149D01*
X37676615Y-86263195D01*
X37719185Y-86360795D01*
X37714200Y-86455903D01*
X37661662Y-86548518D01*
X37611616Y-86593580D01*
X37514016Y-86636149D01*
X37181140Y-86618704D01*
X38092138Y-86523394D02*
X38295017Y-87201608D01*
X38567676Y-86548316D02*
X38295017Y-87201608D01*
X38187448Y-87434393D01*
X38137402Y-87479454D01*
X38039802Y-87522024D01*
X39583751Y-86267775D02*
X40154396Y-86297682D01*
X39816738Y-87281358D02*
X39869074Y-86282729D01*
X40577598Y-87321233D02*
X40484983Y-87268695D01*
X40439921Y-87218649D01*
X40397352Y-87121049D01*
X40412305Y-86835726D01*
X40464843Y-86743111D01*
X40514889Y-86698049D01*
X40612489Y-86655480D01*
X40755150Y-86662957D01*
X40847766Y-86715495D01*
X40892827Y-86765541D01*
X40935397Y-86863140D01*
X40920444Y-87148463D01*
X40867905Y-87241079D01*
X40817860Y-87286140D01*
X40720260Y-87328710D01*
X40577598Y-87321233D01*
X41338459Y-87361108D02*
X41390795Y-86362479D01*
X41370857Y-86742909D02*
X41468457Y-86700339D01*
X41658672Y-86710308D01*
X41751288Y-86762846D01*
X41796349Y-86812892D01*
X41838919Y-86910492D01*
X41823966Y-87195815D01*
X41771427Y-87288430D01*
X41721381Y-87333492D01*
X41623782Y-87376061D01*
X41433567Y-87366092D01*
X41340951Y-87313554D01*
X42241981Y-87408460D02*
X42276872Y-86742707D01*
X42294317Y-86409830D02*
X42244271Y-86454892D01*
X42289333Y-86504938D01*
X42339378Y-86459876D01*
X42294317Y-86409830D01*
X42289333Y-86504938D01*
X43145503Y-87455811D02*
X43172917Y-86932720D01*
X43130348Y-86835120D01*
X43037732Y-86782582D01*
X42847517Y-86772613D01*
X42749917Y-86815182D01*
X43147995Y-87408257D02*
X43050395Y-87450827D01*
X42812626Y-87438366D01*
X42720011Y-87385828D01*
X42677442Y-87288228D01*
X42682426Y-87193120D01*
X42734964Y-87100505D01*
X42832564Y-87057936D01*
X43070333Y-87070397D01*
X43167933Y-87027827D01*
X43575979Y-87430687D02*
X43668595Y-87483225D01*
X43858810Y-87493194D01*
X43956409Y-87450625D01*
X44008948Y-87358009D01*
X44011440Y-87310455D01*
X43968870Y-87212856D01*
X43876255Y-87160318D01*
X43733594Y-87152841D01*
X43640978Y-87100303D01*
X43598409Y-87002703D01*
X43600901Y-86955149D01*
X43653439Y-86862534D01*
X43751039Y-86819964D01*
X43893700Y-86827441D01*
X43986316Y-86879979D01*
X45527974Y-86579299D02*
X45490592Y-87292606D01*
X45435561Y-87432775D01*
X45335469Y-87522898D01*
X45190316Y-87562975D01*
X45095208Y-87557991D01*
X46334099Y-87575234D02*
X46236499Y-87617803D01*
X46046284Y-87607835D01*
X45953669Y-87555297D01*
X45911099Y-87457697D01*
X45931037Y-87077266D01*
X45983575Y-86984651D01*
X46081175Y-86942082D01*
X46271390Y-86952050D01*
X46364005Y-87004589D01*
X46406575Y-87102188D01*
X46401590Y-87197296D01*
X45921068Y-87267482D01*
X46842035Y-86981957D02*
X46807145Y-87647710D01*
X46837051Y-87077064D02*
X46887097Y-87032003D01*
X46984697Y-86989433D01*
X47127358Y-86996910D01*
X47219973Y-87049448D01*
X47262543Y-87147048D01*
X47235129Y-87670139D01*
X47745557Y-87029308D02*
X47710666Y-87695061D01*
X47740573Y-87124416D02*
X47790619Y-87079354D01*
X47888218Y-87036785D01*
X48030880Y-87044261D01*
X48123495Y-87096800D01*
X48166065Y-87194399D01*
X48138651Y-87717491D01*
X48997111Y-87714797D02*
X48899511Y-87757366D01*
X48709296Y-87747397D01*
X48616681Y-87694859D01*
X48574111Y-87597259D01*
X48594049Y-87216829D01*
X48646587Y-87124214D01*
X48744187Y-87081644D01*
X48934402Y-87091613D01*
X49027017Y-87144151D01*
X49069587Y-87241751D01*
X49064602Y-87336859D01*
X48584080Y-87407044D01*
X49470157Y-87787272D02*
X49505047Y-87121519D01*
X49495079Y-87311734D02*
X49547617Y-87219119D01*
X49597663Y-87174057D01*
X49695262Y-87131488D01*
X49790370Y-87136472D01*
X50123246Y-87153918D02*
X50078387Y-88009886D01*
X50025849Y-88102501D01*
X49928249Y-88145071D01*
X49880695Y-88142578D01*
X50140692Y-86821041D02*
X50090646Y-86866103D01*
X50135707Y-86916149D01*
X50185753Y-86871087D01*
X50140692Y-86821041D01*
X50135707Y-86916149D01*
X50991878Y-87867022D02*
X51019292Y-87343931D01*
X50976722Y-87246331D01*
X50884107Y-87193793D01*
X50693892Y-87183824D01*
X50596292Y-87226393D01*
X50994370Y-87819469D02*
X50896770Y-87862038D01*
X50659001Y-87849577D01*
X50566386Y-87797039D01*
X50523817Y-87699439D01*
X50528801Y-87604331D01*
X50581339Y-87511716D01*
X50678939Y-87469147D01*
X50916708Y-87481608D01*
X51014308Y-87439038D01*
X51467416Y-87891944D02*
X51519752Y-86893315D01*
X51895400Y-87914374D02*
X51922814Y-87391282D01*
X51880244Y-87293682D01*
X51787629Y-87241144D01*
X51644968Y-87233668D01*
X51547368Y-87276237D01*
X51497322Y-87321299D01*
X52405828Y-87273543D02*
X52370938Y-87939296D01*
X52400844Y-87368650D02*
X52450890Y-87323589D01*
X52548490Y-87281019D01*
X52691151Y-87288496D01*
X52783766Y-87341034D01*
X52826336Y-87438634D01*
X52798922Y-87961725D01*
X115623780Y-71575442D02*
X115623780Y-72146871D01*
X115623780Y-71861157D02*
X114623780Y-71736157D01*
X114766638Y-71849252D01*
X114861876Y-71956395D01*
X114909495Y-72057585D01*
X116004733Y-71289728D02*
X115957114Y-71236157D01*
X115814257Y-71123061D01*
X115719019Y-71063538D01*
X115576161Y-70998061D01*
X115338066Y-70920680D01*
X115147590Y-70896871D01*
X114909495Y-70914728D01*
X114766638Y-70944490D01*
X114671400Y-70980204D01*
X114528542Y-71057585D01*
X114480923Y-71099252D01*
X115623780Y-69718300D02*
X114623780Y-69593300D01*
X114623780Y-69212347D01*
X114671400Y-69123061D01*
X114719019Y-69081395D01*
X114814257Y-69045680D01*
X114957114Y-69063538D01*
X115052352Y-69123061D01*
X115099971Y-69176633D01*
X115147590Y-69277823D01*
X115147590Y-69658776D01*
X115623780Y-68575442D02*
X115576161Y-68664728D01*
X115480923Y-68700442D01*
X114623780Y-68593300D01*
X115623780Y-67765919D02*
X115099971Y-67700442D01*
X115004733Y-67736157D01*
X114957114Y-67825442D01*
X114957114Y-68015919D01*
X115004733Y-68117109D01*
X115576161Y-67759966D02*
X115623780Y-67861157D01*
X115623780Y-68099252D01*
X115576161Y-68188538D01*
X115480923Y-68224252D01*
X115385685Y-68212347D01*
X115290447Y-68152823D01*
X115242828Y-68051633D01*
X115242828Y-67813538D01*
X115195209Y-67712347D01*
X115576161Y-66855204D02*
X115623780Y-66956395D01*
X115623780Y-67146871D01*
X115576161Y-67236157D01*
X115528542Y-67277823D01*
X115433304Y-67313538D01*
X115147590Y-67277823D01*
X115052352Y-67218300D01*
X115004733Y-67164728D01*
X114957114Y-67063538D01*
X114957114Y-66873061D01*
X115004733Y-66783776D01*
X115576161Y-66045680D02*
X115623780Y-66146871D01*
X115623780Y-66337347D01*
X115576161Y-66426633D01*
X115480923Y-66462347D01*
X115099971Y-66414728D01*
X115004733Y-66355204D01*
X114957114Y-66254014D01*
X114957114Y-66063538D01*
X115004733Y-65974252D01*
X115099971Y-65938538D01*
X115195209Y-65950442D01*
X115290447Y-66438538D01*
X115623780Y-64813538D02*
X114623780Y-64688538D01*
X114623780Y-64307585D01*
X114671400Y-64218300D01*
X114719019Y-64176633D01*
X114814257Y-64140919D01*
X114957114Y-64158776D01*
X115052352Y-64218300D01*
X115099971Y-64271871D01*
X115147590Y-64373061D01*
X115147590Y-64754014D01*
X115623780Y-63813538D02*
X114957114Y-63730204D01*
X115147590Y-63754014D02*
X115052352Y-63694490D01*
X115004733Y-63640919D01*
X114957114Y-63539728D01*
X114957114Y-63444490D01*
X115623780Y-63051633D02*
X115576161Y-63140919D01*
X115528542Y-63182585D01*
X115433304Y-63218300D01*
X115147590Y-63182585D01*
X115052352Y-63123061D01*
X115004733Y-63069490D01*
X114957114Y-62968300D01*
X114957114Y-62825442D01*
X115004733Y-62736157D01*
X115052352Y-62694490D01*
X115147590Y-62658776D01*
X115433304Y-62694490D01*
X115528542Y-62754014D01*
X115576161Y-62807585D01*
X115623780Y-62908776D01*
X115623780Y-63051633D01*
X115242828Y-62242109D02*
X115242828Y-61480204D01*
X115623780Y-61051633D02*
X114623780Y-60926633D01*
X115338066Y-60682585D01*
X114623780Y-60259966D01*
X115623780Y-60384966D01*
X115623780Y-59908776D02*
X114957114Y-59825442D01*
X114623780Y-59783776D02*
X114671400Y-59837347D01*
X114719019Y-59795680D01*
X114671400Y-59742109D01*
X114623780Y-59783776D01*
X114719019Y-59795680D01*
X115576161Y-58998061D02*
X115623780Y-59099252D01*
X115623780Y-59289728D01*
X115576161Y-59379014D01*
X115528542Y-59420680D01*
X115433304Y-59456395D01*
X115147590Y-59420680D01*
X115052352Y-59361157D01*
X115004733Y-59307585D01*
X114957114Y-59206395D01*
X114957114Y-59015919D01*
X115004733Y-58926633D01*
X115623780Y-58575442D02*
X114957114Y-58492109D01*
X115147590Y-58515919D02*
X115052352Y-58456395D01*
X115004733Y-58402823D01*
X114957114Y-58301633D01*
X114957114Y-58206395D01*
X115623780Y-57813538D02*
X115576161Y-57902823D01*
X115528542Y-57944490D01*
X115433304Y-57980204D01*
X115147590Y-57944490D01*
X115052352Y-57884966D01*
X115004733Y-57831395D01*
X114957114Y-57730204D01*
X114957114Y-57587347D01*
X115004733Y-57498061D01*
X115052352Y-57456395D01*
X115147590Y-57420680D01*
X115433304Y-57456395D01*
X115528542Y-57515919D01*
X115576161Y-57569490D01*
X115623780Y-57670680D01*
X115623780Y-57813538D01*
X114957114Y-56301633D02*
X115623780Y-56194490D01*
X115147590Y-55944490D01*
X115623780Y-55813538D01*
X114957114Y-55539728D01*
X115623780Y-55242109D02*
X114957114Y-55158776D01*
X114623780Y-55117109D02*
X114671400Y-55170680D01*
X114719019Y-55129014D01*
X114671400Y-55075442D01*
X114623780Y-55117109D01*
X114719019Y-55129014D01*
X114957114Y-54825442D02*
X114957114Y-54444490D01*
X114623780Y-54640919D02*
X115480923Y-54748061D01*
X115576161Y-54712347D01*
X115623780Y-54623061D01*
X115623780Y-54527823D01*
X115623780Y-54194490D02*
X114623780Y-54069490D01*
X115623780Y-53765919D02*
X115099971Y-53700442D01*
X115004733Y-53736157D01*
X114957114Y-53825442D01*
X114957114Y-53968300D01*
X115004733Y-54069490D01*
X115052352Y-54123061D01*
X117186161Y-71664728D02*
X117233780Y-71765919D01*
X117233780Y-71956395D01*
X117186161Y-72045680D01*
X117138542Y-72087347D01*
X117043304Y-72123061D01*
X116757590Y-72087347D01*
X116662352Y-72027823D01*
X116614733Y-71974252D01*
X116567114Y-71873061D01*
X116567114Y-71682585D01*
X116614733Y-71593300D01*
X117233780Y-71099252D02*
X117186161Y-71188538D01*
X117138542Y-71230204D01*
X117043304Y-71265919D01*
X116757590Y-71230204D01*
X116662352Y-71170680D01*
X116614733Y-71117109D01*
X116567114Y-71015919D01*
X116567114Y-70873061D01*
X116614733Y-70783776D01*
X116662352Y-70742109D01*
X116757590Y-70706395D01*
X117043304Y-70742109D01*
X117138542Y-70801633D01*
X117186161Y-70855204D01*
X117233780Y-70956395D01*
X117233780Y-71099252D01*
X117233780Y-70337347D02*
X116567114Y-70254014D01*
X116662352Y-70265919D02*
X116614733Y-70212347D01*
X116567114Y-70111157D01*
X116567114Y-69968300D01*
X116614733Y-69879014D01*
X116709971Y-69843300D01*
X117233780Y-69908776D01*
X116709971Y-69843300D02*
X116614733Y-69783776D01*
X116567114Y-69682585D01*
X116567114Y-69539728D01*
X116614733Y-69450442D01*
X116709971Y-69414728D01*
X117233780Y-69480204D01*
X116567114Y-68920680D02*
X117567114Y-69045680D01*
X116614733Y-68926633D02*
X116567114Y-68825442D01*
X116567114Y-68634966D01*
X116614733Y-68545680D01*
X116662352Y-68504014D01*
X116757590Y-68468300D01*
X117043304Y-68504014D01*
X117138542Y-68563538D01*
X117186161Y-68617109D01*
X117233780Y-68718300D01*
X117233780Y-68908776D01*
X117186161Y-68998061D01*
X117233780Y-67956395D02*
X117186161Y-68045680D01*
X117138542Y-68087347D01*
X117043304Y-68123061D01*
X116757590Y-68087347D01*
X116662352Y-68027823D01*
X116614733Y-67974252D01*
X116567114Y-67873061D01*
X116567114Y-67730204D01*
X116614733Y-67640919D01*
X116662352Y-67599252D01*
X116757590Y-67563538D01*
X117043304Y-67599252D01*
X117138542Y-67658776D01*
X117186161Y-67712347D01*
X117233780Y-67813538D01*
X117233780Y-67956395D01*
X116567114Y-67111157D02*
X117233780Y-67194490D01*
X116662352Y-67123061D02*
X116614733Y-67069490D01*
X116567114Y-66968300D01*
X116567114Y-66825442D01*
X116614733Y-66736157D01*
X116709971Y-66700442D01*
X117233780Y-66765919D01*
X117186161Y-65902823D02*
X117233780Y-66004014D01*
X117233780Y-66194490D01*
X117186161Y-66283776D01*
X117090923Y-66319490D01*
X116709971Y-66271871D01*
X116614733Y-66212347D01*
X116567114Y-66111157D01*
X116567114Y-65920680D01*
X116614733Y-65831395D01*
X116709971Y-65795680D01*
X116805209Y-65807585D01*
X116900447Y-66295680D01*
X116567114Y-65349252D02*
X117233780Y-65432585D01*
X116662352Y-65361157D02*
X116614733Y-65307585D01*
X116567114Y-65206395D01*
X116567114Y-65063538D01*
X116614733Y-64974252D01*
X116709971Y-64938538D01*
X117233780Y-65004014D01*
X116567114Y-64587347D02*
X116567114Y-64206395D01*
X116233780Y-64402823D02*
X117090923Y-64509966D01*
X117186161Y-64474252D01*
X117233780Y-64384966D01*
X117233780Y-64289728D01*
X117186161Y-63998061D02*
X117233780Y-63908776D01*
X117233780Y-63718300D01*
X117186161Y-63617109D01*
X117090923Y-63557585D01*
X117043304Y-63551633D01*
X116948066Y-63587347D01*
X116900447Y-63676633D01*
X116900447Y-63819490D01*
X116852828Y-63908776D01*
X116757590Y-63944490D01*
X116709971Y-63938538D01*
X116614733Y-63879014D01*
X116567114Y-63777823D01*
X116567114Y-63634966D01*
X116614733Y-63545680D01*
X116567114Y-62444490D02*
X116567114Y-62063538D01*
X117233780Y-62384966D02*
X116376638Y-62277823D01*
X116281400Y-62218300D01*
X116233780Y-62117109D01*
X116233780Y-62021871D01*
X117233780Y-61384966D02*
X116709971Y-61319490D01*
X116614733Y-61355204D01*
X116567114Y-61444490D01*
X116567114Y-61634966D01*
X116614733Y-61736157D01*
X117186161Y-61379014D02*
X117233780Y-61480204D01*
X117233780Y-61718300D01*
X117186161Y-61807585D01*
X117090923Y-61843300D01*
X116995685Y-61831395D01*
X116900447Y-61771871D01*
X116852828Y-61670680D01*
X116852828Y-61432585D01*
X116805209Y-61331395D01*
X117186161Y-60474252D02*
X117233780Y-60575442D01*
X117233780Y-60765919D01*
X117186161Y-60855204D01*
X117138542Y-60896871D01*
X117043304Y-60932585D01*
X116757590Y-60896871D01*
X116662352Y-60837347D01*
X116614733Y-60783776D01*
X116567114Y-60682585D01*
X116567114Y-60492109D01*
X116614733Y-60402823D01*
X117233780Y-60051633D02*
X116567114Y-59968300D01*
X116233780Y-59926633D02*
X116281400Y-59980204D01*
X116329019Y-59938538D01*
X116281400Y-59884966D01*
X116233780Y-59926633D01*
X116329019Y-59938538D01*
X116567114Y-59492109D02*
X117233780Y-59575442D01*
X116662352Y-59504014D02*
X116614733Y-59450442D01*
X116567114Y-59349252D01*
X116567114Y-59206395D01*
X116614733Y-59117109D01*
X116709971Y-59081395D01*
X117233780Y-59146871D01*
X116567114Y-58158776D02*
X117376638Y-58259966D01*
X117471876Y-58319490D01*
X117519495Y-58373061D01*
X117567114Y-58474252D01*
X117567114Y-58617109D01*
X117519495Y-58706395D01*
X117186161Y-58236157D02*
X117233780Y-58337347D01*
X117233780Y-58527823D01*
X117186161Y-58617109D01*
X117138542Y-58658776D01*
X117043304Y-58694490D01*
X116757590Y-58658776D01*
X116662352Y-58599252D01*
X116614733Y-58545680D01*
X116567114Y-58444490D01*
X116567114Y-58254014D01*
X116614733Y-58164728D01*
X117233780Y-57004014D02*
X116233780Y-56879014D01*
X116233780Y-56640919D01*
X116281400Y-56504014D01*
X116376638Y-56420680D01*
X116471876Y-56384966D01*
X116662352Y-56361157D01*
X116805209Y-56379014D01*
X116995685Y-56450442D01*
X117090923Y-56509966D01*
X117186161Y-56617109D01*
X117233780Y-56765919D01*
X117233780Y-57004014D01*
X116233780Y-55688538D02*
X116233780Y-55498061D01*
X116281400Y-55408776D01*
X116376638Y-55325442D01*
X116567114Y-55301633D01*
X116900447Y-55343300D01*
X117090923Y-55414728D01*
X117186161Y-55521871D01*
X117233780Y-55623061D01*
X117233780Y-55813538D01*
X117186161Y-55902823D01*
X117090923Y-55986157D01*
X116900447Y-56009966D01*
X116567114Y-55968300D01*
X116376638Y-55896871D01*
X116281400Y-55789728D01*
X116233780Y-55688538D01*
X116233780Y-54926633D02*
X117233780Y-54813538D01*
X116519495Y-54533776D01*
X117233780Y-54432585D01*
X116233780Y-54069490D01*
X117233780Y-53813538D02*
X116233780Y-53688538D01*
X117233780Y-53242109D01*
X116233780Y-53117109D01*
D11*
X121896342Y-51312800D02*
X121839200Y-51284228D01*
X121753485Y-51284228D01*
X121667771Y-51312800D01*
X121610628Y-51369942D01*
X121582057Y-51427085D01*
X121553485Y-51541371D01*
X121553485Y-51627085D01*
X121582057Y-51741371D01*
X121610628Y-51798514D01*
X121667771Y-51855657D01*
X121753485Y-51884228D01*
X121810628Y-51884228D01*
X121896342Y-51855657D01*
X121924914Y-51827085D01*
X121924914Y-51627085D01*
X121810628Y-51627085D01*
X122182057Y-51884228D02*
X122182057Y-51284228D01*
X122524914Y-51884228D01*
X122524914Y-51284228D01*
X122810628Y-51884228D02*
X122810628Y-51284228D01*
X122953485Y-51284228D01*
X123039200Y-51312800D01*
X123096342Y-51369942D01*
X123124914Y-51427085D01*
X123153485Y-51541371D01*
X123153485Y-51627085D01*
X123124914Y-51741371D01*
X123096342Y-51798514D01*
X123039200Y-51855657D01*
X122953485Y-51884228D01*
X122810628Y-51884228D01*
D10*
X120611819Y-72033776D02*
X120564200Y-71980204D01*
X120516580Y-71879014D01*
X120516580Y-71640919D01*
X120564200Y-71551633D01*
X120611819Y-71509966D01*
X120707057Y-71474252D01*
X120802295Y-71486157D01*
X120945152Y-71551633D01*
X121516580Y-72194490D01*
X121516580Y-71575442D01*
X121897533Y-71289728D02*
X121849914Y-71236157D01*
X121707057Y-71123061D01*
X121611819Y-71063538D01*
X121468961Y-70998061D01*
X121230866Y-70920680D01*
X121040390Y-70896871D01*
X120802295Y-70914728D01*
X120659438Y-70944490D01*
X120564200Y-70980204D01*
X120421342Y-71057585D01*
X120373723Y-71099252D01*
X121421342Y-69134966D02*
X121468961Y-69188538D01*
X121516580Y-69337347D01*
X121516580Y-69432585D01*
X121468961Y-69569490D01*
X121373723Y-69652823D01*
X121278485Y-69688538D01*
X121088009Y-69712347D01*
X120945152Y-69694490D01*
X120754676Y-69623061D01*
X120659438Y-69563538D01*
X120564200Y-69456395D01*
X120516580Y-69307585D01*
X120516580Y-69212347D01*
X120564200Y-69075442D01*
X120611819Y-69033776D01*
X121516580Y-68575442D02*
X121468961Y-68664728D01*
X121373723Y-68700442D01*
X120516580Y-68593300D01*
X121516580Y-68051633D02*
X121468961Y-68140919D01*
X121421342Y-68182585D01*
X121326104Y-68218300D01*
X121040390Y-68182585D01*
X120945152Y-68123061D01*
X120897533Y-68069490D01*
X120849914Y-67968300D01*
X120849914Y-67825442D01*
X120897533Y-67736157D01*
X120945152Y-67694490D01*
X121040390Y-67658776D01*
X121326104Y-67694490D01*
X121421342Y-67754014D01*
X121468961Y-67807585D01*
X121516580Y-67908776D01*
X121516580Y-68051633D01*
X121468961Y-67331395D02*
X121516580Y-67242109D01*
X121516580Y-67051633D01*
X121468961Y-66950442D01*
X121373723Y-66890919D01*
X121326104Y-66884966D01*
X121230866Y-66920680D01*
X121183247Y-67009966D01*
X121183247Y-67152823D01*
X121135628Y-67242109D01*
X121040390Y-67277823D01*
X120992771Y-67271871D01*
X120897533Y-67212347D01*
X120849914Y-67111157D01*
X120849914Y-66968300D01*
X120897533Y-66879014D01*
X121468961Y-66093300D02*
X121516580Y-66194490D01*
X121516580Y-66384966D01*
X121468961Y-66474252D01*
X121373723Y-66509966D01*
X120992771Y-66462347D01*
X120897533Y-66402823D01*
X120849914Y-66301633D01*
X120849914Y-66111157D01*
X120897533Y-66021871D01*
X120992771Y-65986157D01*
X121088009Y-65998061D01*
X121183247Y-66486157D01*
X120516580Y-64450442D02*
X121230866Y-64539728D01*
X121373723Y-64605204D01*
X121468961Y-64712347D01*
X121516580Y-64861157D01*
X121516580Y-64956395D01*
X120516580Y-63974252D02*
X121326104Y-64075442D01*
X121421342Y-64039728D01*
X121468961Y-63998061D01*
X121516580Y-63908776D01*
X121516580Y-63718300D01*
X121468961Y-63617109D01*
X121421342Y-63563538D01*
X121326104Y-63504014D01*
X120516580Y-63402823D01*
X121516580Y-63051633D02*
X120516580Y-62926633D01*
X121230866Y-62682585D01*
X120516580Y-62259966D01*
X121516580Y-62384966D01*
X121516580Y-61908776D02*
X120516580Y-61783776D01*
X120516580Y-61402823D01*
X120564200Y-61313538D01*
X120611819Y-61271871D01*
X120707057Y-61236157D01*
X120849914Y-61254014D01*
X120945152Y-61313538D01*
X120992771Y-61367109D01*
X121040390Y-61468300D01*
X121040390Y-61849252D01*
X120992771Y-60843300D02*
X120992771Y-60509966D01*
X121516580Y-60432585D02*
X121516580Y-60908776D01*
X120516580Y-60783776D01*
X120516580Y-60307585D01*
X121516580Y-59432585D02*
X121040390Y-59706395D01*
X121516580Y-60004014D02*
X120516580Y-59879014D01*
X120516580Y-59498061D01*
X120564200Y-59408776D01*
X120611819Y-59367109D01*
X120707057Y-59331395D01*
X120849914Y-59349252D01*
X120945152Y-59408776D01*
X120992771Y-59462347D01*
X121040390Y-59563538D01*
X121040390Y-59944490D01*
X121516580Y-58242109D02*
X120516580Y-58117109D01*
X120516580Y-57736157D01*
X120564200Y-57646871D01*
X120611819Y-57605204D01*
X120707057Y-57569490D01*
X120849914Y-57587347D01*
X120945152Y-57646871D01*
X120992771Y-57700442D01*
X121040390Y-57801633D01*
X121040390Y-58182585D01*
X121230866Y-57254014D02*
X121230866Y-56777823D01*
X121516580Y-57384966D02*
X120516580Y-56926633D01*
X121516580Y-56718300D01*
X121516580Y-56384966D02*
X120516580Y-56259966D01*
X120516580Y-56021871D01*
X120564200Y-55884966D01*
X120659438Y-55801633D01*
X120754676Y-55765919D01*
X120945152Y-55742109D01*
X121088009Y-55759966D01*
X121278485Y-55831395D01*
X121373723Y-55890919D01*
X121468961Y-55998061D01*
X121516580Y-56146871D01*
X121516580Y-56384966D01*
X121468961Y-55426633D02*
X121516580Y-55289728D01*
X121516580Y-55051633D01*
X121468961Y-54950442D01*
X121421342Y-54896871D01*
X121326104Y-54837347D01*
X121230866Y-54825442D01*
X121135628Y-54861157D01*
X121088009Y-54902823D01*
X121040390Y-54992109D01*
X120992771Y-55176633D01*
X120945152Y-55265919D01*
X120897533Y-55307585D01*
X120802295Y-55343300D01*
X120707057Y-55331395D01*
X120611819Y-55271871D01*
X120564200Y-55218300D01*
X120516580Y-55117109D01*
X120516580Y-54879014D01*
X120564200Y-54742109D01*
X123126580Y-71956395D02*
X123078961Y-72045680D01*
X123031342Y-72087347D01*
X122936104Y-72123061D01*
X122650390Y-72087347D01*
X122555152Y-72027823D01*
X122507533Y-71974252D01*
X122459914Y-71873061D01*
X122459914Y-71730204D01*
X122507533Y-71640919D01*
X122555152Y-71599252D01*
X122650390Y-71563538D01*
X122936104Y-71599252D01*
X123031342Y-71658776D01*
X123078961Y-71712347D01*
X123126580Y-71813538D01*
X123126580Y-71956395D01*
X122459914Y-71111157D02*
X123126580Y-71194490D01*
X122555152Y-71123061D02*
X122507533Y-71069490D01*
X122459914Y-70968300D01*
X122459914Y-70825442D01*
X122507533Y-70736157D01*
X122602771Y-70700442D01*
X123126580Y-70765919D01*
X122459914Y-69587347D02*
X122459914Y-69206395D01*
X122126580Y-69402823D02*
X122983723Y-69509966D01*
X123078961Y-69474252D01*
X123126580Y-69384966D01*
X123126580Y-69289728D01*
X123126580Y-68956395D02*
X122126580Y-68831395D01*
X123126580Y-68527823D02*
X122602771Y-68462347D01*
X122507533Y-68498061D01*
X122459914Y-68587347D01*
X122459914Y-68730204D01*
X122507533Y-68831395D01*
X122555152Y-68884966D01*
X123078961Y-67664728D02*
X123126580Y-67765919D01*
X123126580Y-67956395D01*
X123078961Y-68045680D01*
X122983723Y-68081395D01*
X122602771Y-68033776D01*
X122507533Y-67974252D01*
X122459914Y-67873061D01*
X122459914Y-67682585D01*
X122507533Y-67593300D01*
X122602771Y-67557585D01*
X122698009Y-67569490D01*
X122793247Y-68057585D01*
X122126580Y-66117109D02*
X122126580Y-65926633D01*
X122174200Y-65837347D01*
X122269438Y-65754014D01*
X122459914Y-65730204D01*
X122793247Y-65771871D01*
X122983723Y-65843300D01*
X123078961Y-65950442D01*
X123126580Y-66051633D01*
X123126580Y-66242109D01*
X123078961Y-66331395D01*
X122983723Y-66414728D01*
X122793247Y-66438538D01*
X122459914Y-66396871D01*
X122269438Y-66325442D01*
X122174200Y-66218300D01*
X122126580Y-66117109D01*
X123126580Y-65384966D02*
X122126580Y-65259966D01*
X122126580Y-64879014D01*
X122174200Y-64789728D01*
X122221819Y-64748061D01*
X122317057Y-64712347D01*
X122459914Y-64730204D01*
X122555152Y-64789728D01*
X122602771Y-64843300D01*
X122650390Y-64944490D01*
X122650390Y-65325442D01*
X123126580Y-64384966D02*
X122126580Y-64259966D01*
X122126580Y-63879014D01*
X122174200Y-63789728D01*
X122221819Y-63748061D01*
X122317057Y-63712347D01*
X122459914Y-63730204D01*
X122555152Y-63789728D01*
X122602771Y-63843300D01*
X122650390Y-63944490D01*
X122650390Y-64325442D01*
X122126580Y-63069490D02*
X122126580Y-62879014D01*
X122174200Y-62789728D01*
X122269438Y-62706395D01*
X122459914Y-62682585D01*
X122793247Y-62724252D01*
X122983723Y-62795680D01*
X123078961Y-62902823D01*
X123126580Y-63004014D01*
X123126580Y-63194490D01*
X123078961Y-63283776D01*
X122983723Y-63367109D01*
X122793247Y-63390919D01*
X122459914Y-63349252D01*
X122269438Y-63277823D01*
X122174200Y-63170680D01*
X122126580Y-63069490D01*
X123078961Y-62379014D02*
X123126580Y-62242109D01*
X123126580Y-62004014D01*
X123078961Y-61902823D01*
X123031342Y-61849252D01*
X122936104Y-61789728D01*
X122840866Y-61777823D01*
X122745628Y-61813538D01*
X122698009Y-61855204D01*
X122650390Y-61944490D01*
X122602771Y-62129014D01*
X122555152Y-62218300D01*
X122507533Y-62259966D01*
X122412295Y-62295680D01*
X122317057Y-62283776D01*
X122221819Y-62224252D01*
X122174200Y-62170680D01*
X122126580Y-62069490D01*
X122126580Y-61831395D01*
X122174200Y-61694490D01*
X123126580Y-61384966D02*
X122126580Y-61259966D01*
X122126580Y-60926633D02*
X122126580Y-60355204D01*
X123126580Y-60765919D02*
X122126580Y-60640919D01*
X122602771Y-60081395D02*
X122602771Y-59748061D01*
X123126580Y-59670680D02*
X123126580Y-60146871D01*
X122126580Y-60021871D01*
X122126580Y-59545680D01*
X123078961Y-58521871D02*
X123126580Y-58384966D01*
X123126580Y-58146871D01*
X123078961Y-58045680D01*
X123031342Y-57992109D01*
X122936104Y-57932585D01*
X122840866Y-57920680D01*
X122745628Y-57956395D01*
X122698009Y-57998061D01*
X122650390Y-58087347D01*
X122602771Y-58271871D01*
X122555152Y-58361157D01*
X122507533Y-58402823D01*
X122412295Y-58438538D01*
X122317057Y-58426633D01*
X122221819Y-58367109D01*
X122174200Y-58313538D01*
X122126580Y-58212347D01*
X122126580Y-57974252D01*
X122174200Y-57837347D01*
X123126580Y-57527823D02*
X122126580Y-57402823D01*
X123126580Y-57051633D02*
X122126580Y-56926633D01*
X122126580Y-56688538D01*
X122174200Y-56551633D01*
X122269438Y-56468300D01*
X122364676Y-56432585D01*
X122555152Y-56408776D01*
X122698009Y-56426633D01*
X122888485Y-56498061D01*
X122983723Y-56557585D01*
X123078961Y-56664728D01*
X123126580Y-56813538D01*
X123126580Y-57051633D01*
X122602771Y-55986157D02*
X122602771Y-55652823D01*
X123126580Y-55575442D02*
X123126580Y-56051633D01*
X122126580Y-55926633D01*
X122126580Y-55450442D01*
D11*
X121924914Y-49344228D02*
X121724914Y-49058514D01*
X121582057Y-49344228D02*
X121582057Y-48744228D01*
X121810628Y-48744228D01*
X121867771Y-48772800D01*
X121896342Y-48801371D01*
X121924914Y-48858514D01*
X121924914Y-48944228D01*
X121896342Y-49001371D01*
X121867771Y-49029942D01*
X121810628Y-49058514D01*
X121582057Y-49058514D01*
X122153485Y-49172800D02*
X122439200Y-49172800D01*
X122096342Y-49344228D02*
X122296342Y-48744228D01*
X122496342Y-49344228D01*
X122639200Y-48744228D02*
X122782057Y-49344228D01*
X122896342Y-48915657D01*
X123010628Y-49344228D01*
X123153485Y-48744228D01*
D10*
%TO.C,SW17*%
X106680474Y-103033193D02*
X106580566Y-102920525D01*
X106374369Y-102801478D01*
X106268081Y-102795098D01*
X106203032Y-102812528D01*
X106114174Y-102871197D01*
X106066555Y-102953676D01*
X106060175Y-103059964D01*
X106077605Y-103125013D01*
X106136274Y-103213871D01*
X106277422Y-103350348D01*
X106336091Y-103439207D01*
X106353520Y-103504255D01*
X106347141Y-103610544D01*
X106299522Y-103693022D01*
X106210663Y-103751691D01*
X106145614Y-103769121D01*
X106039326Y-103762741D01*
X105833130Y-103643694D01*
X105733221Y-103531026D01*
X105420737Y-103405598D02*
X105714540Y-102420525D01*
X105192440Y-102943877D01*
X105384626Y-102230049D01*
X104678429Y-102977027D01*
X104394882Y-101658621D02*
X104889754Y-101944335D01*
X104642318Y-101801478D02*
X104142318Y-102667503D01*
X104296225Y-102591404D01*
X104426323Y-102556545D01*
X104532611Y-102562925D01*
X103606207Y-102357979D02*
X103028857Y-102024646D01*
X103900011Y-101372906D01*
%TO.C,SW5*%
X97746666Y-26594761D02*
X97889523Y-26642380D01*
X98127619Y-26642380D01*
X98222857Y-26594761D01*
X98270476Y-26547142D01*
X98318095Y-26451904D01*
X98318095Y-26356666D01*
X98270476Y-26261428D01*
X98222857Y-26213809D01*
X98127619Y-26166190D01*
X97937142Y-26118571D01*
X97841904Y-26070952D01*
X97794285Y-26023333D01*
X97746666Y-25928095D01*
X97746666Y-25832857D01*
X97794285Y-25737619D01*
X97841904Y-25690000D01*
X97937142Y-25642380D01*
X98175238Y-25642380D01*
X98318095Y-25690000D01*
X98651428Y-25642380D02*
X98889523Y-26642380D01*
X99080000Y-25928095D01*
X99270476Y-26642380D01*
X99508571Y-25642380D01*
X100365714Y-25642380D02*
X99889523Y-25642380D01*
X99841904Y-26118571D01*
X99889523Y-26070952D01*
X99984761Y-26023333D01*
X100222857Y-26023333D01*
X100318095Y-26070952D01*
X100365714Y-26118571D01*
X100413333Y-26213809D01*
X100413333Y-26451904D01*
X100365714Y-26547142D01*
X100318095Y-26594761D01*
X100222857Y-26642380D01*
X99984761Y-26642380D01*
X99889523Y-26594761D01*
X99841904Y-26547142D01*
%TO.C,SW4*%
X79746666Y-24094761D02*
X79889523Y-24142380D01*
X80127619Y-24142380D01*
X80222857Y-24094761D01*
X80270476Y-24047142D01*
X80318095Y-23951904D01*
X80318095Y-23856666D01*
X80270476Y-23761428D01*
X80222857Y-23713809D01*
X80127619Y-23666190D01*
X79937142Y-23618571D01*
X79841904Y-23570952D01*
X79794285Y-23523333D01*
X79746666Y-23428095D01*
X79746666Y-23332857D01*
X79794285Y-23237619D01*
X79841904Y-23190000D01*
X79937142Y-23142380D01*
X80175238Y-23142380D01*
X80318095Y-23190000D01*
X80651428Y-23142380D02*
X80889523Y-24142380D01*
X81080000Y-23428095D01*
X81270476Y-24142380D01*
X81508571Y-23142380D01*
X82318095Y-23475714D02*
X82318095Y-24142380D01*
X82080000Y-23094761D02*
X81841904Y-23809047D01*
X82460952Y-23809047D01*
%TO.C,SW9*%
X79746666Y-41044761D02*
X79889523Y-41092380D01*
X80127619Y-41092380D01*
X80222857Y-41044761D01*
X80270476Y-40997142D01*
X80318095Y-40901904D01*
X80318095Y-40806666D01*
X80270476Y-40711428D01*
X80222857Y-40663809D01*
X80127619Y-40616190D01*
X79937142Y-40568571D01*
X79841904Y-40520952D01*
X79794285Y-40473333D01*
X79746666Y-40378095D01*
X79746666Y-40282857D01*
X79794285Y-40187619D01*
X79841904Y-40140000D01*
X79937142Y-40092380D01*
X80175238Y-40092380D01*
X80318095Y-40140000D01*
X80651428Y-40092380D02*
X80889523Y-41092380D01*
X81080000Y-40378095D01*
X81270476Y-41092380D01*
X81508571Y-40092380D01*
X81937142Y-41092380D02*
X82127619Y-41092380D01*
X82222857Y-41044761D01*
X82270476Y-40997142D01*
X82365714Y-40854285D01*
X82413333Y-40663809D01*
X82413333Y-40282857D01*
X82365714Y-40187619D01*
X82318095Y-40140000D01*
X82222857Y-40092380D01*
X82032380Y-40092380D01*
X81937142Y-40140000D01*
X81889523Y-40187619D01*
X81841904Y-40282857D01*
X81841904Y-40520952D01*
X81889523Y-40616190D01*
X81937142Y-40663809D01*
X82032380Y-40711428D01*
X82222857Y-40711428D01*
X82318095Y-40663809D01*
X82365714Y-40616190D01*
X82413333Y-40520952D01*
%TO.C,SW3*%
X61746666Y-18594761D02*
X61889523Y-18642380D01*
X62127619Y-18642380D01*
X62222857Y-18594761D01*
X62270476Y-18547142D01*
X62318095Y-18451904D01*
X62318095Y-18356666D01*
X62270476Y-18261428D01*
X62222857Y-18213809D01*
X62127619Y-18166190D01*
X61937142Y-18118571D01*
X61841904Y-18070952D01*
X61794285Y-18023333D01*
X61746666Y-17928095D01*
X61746666Y-17832857D01*
X61794285Y-17737619D01*
X61841904Y-17690000D01*
X61937142Y-17642380D01*
X62175238Y-17642380D01*
X62318095Y-17690000D01*
X62651428Y-17642380D02*
X62889523Y-18642380D01*
X63080000Y-17928095D01*
X63270476Y-18642380D01*
X63508571Y-17642380D01*
X63794285Y-17642380D02*
X64413333Y-17642380D01*
X64080000Y-18023333D01*
X64222857Y-18023333D01*
X64318095Y-18070952D01*
X64365714Y-18118571D01*
X64413333Y-18213809D01*
X64413333Y-18451904D01*
X64365714Y-18547142D01*
X64318095Y-18594761D01*
X64222857Y-18642380D01*
X63937142Y-18642380D01*
X63841904Y-18594761D01*
X63794285Y-18547142D01*
%TO.C,SW8*%
X61746666Y-35710761D02*
X61889523Y-35758380D01*
X62127619Y-35758380D01*
X62222857Y-35710761D01*
X62270476Y-35663142D01*
X62318095Y-35567904D01*
X62318095Y-35472666D01*
X62270476Y-35377428D01*
X62222857Y-35329809D01*
X62127619Y-35282190D01*
X61937142Y-35234571D01*
X61841904Y-35186952D01*
X61794285Y-35139333D01*
X61746666Y-35044095D01*
X61746666Y-34948857D01*
X61794285Y-34853619D01*
X61841904Y-34806000D01*
X61937142Y-34758380D01*
X62175238Y-34758380D01*
X62318095Y-34806000D01*
X62651428Y-34758380D02*
X62889523Y-35758380D01*
X63080000Y-35044095D01*
X63270476Y-35758380D01*
X63508571Y-34758380D01*
X64032380Y-35186952D02*
X63937142Y-35139333D01*
X63889523Y-35091714D01*
X63841904Y-34996476D01*
X63841904Y-34948857D01*
X63889523Y-34853619D01*
X63937142Y-34806000D01*
X64032380Y-34758380D01*
X64222857Y-34758380D01*
X64318095Y-34806000D01*
X64365714Y-34853619D01*
X64413333Y-34948857D01*
X64413333Y-34996476D01*
X64365714Y-35091714D01*
X64318095Y-35139333D01*
X64222857Y-35186952D01*
X64032380Y-35186952D01*
X63937142Y-35234571D01*
X63889523Y-35282190D01*
X63841904Y-35377428D01*
X63841904Y-35567904D01*
X63889523Y-35663142D01*
X63937142Y-35710761D01*
X64032380Y-35758380D01*
X64222857Y-35758380D01*
X64318095Y-35710761D01*
X64365714Y-35663142D01*
X64413333Y-35567904D01*
X64413333Y-35377428D01*
X64365714Y-35282190D01*
X64318095Y-35234571D01*
X64222857Y-35186952D01*
%TO.C,SW2*%
X43746666Y-25594761D02*
X43889523Y-25642380D01*
X44127619Y-25642380D01*
X44222857Y-25594761D01*
X44270476Y-25547142D01*
X44318095Y-25451904D01*
X44318095Y-25356666D01*
X44270476Y-25261428D01*
X44222857Y-25213809D01*
X44127619Y-25166190D01*
X43937142Y-25118571D01*
X43841904Y-25070952D01*
X43794285Y-25023333D01*
X43746666Y-24928095D01*
X43746666Y-24832857D01*
X43794285Y-24737619D01*
X43841904Y-24690000D01*
X43937142Y-24642380D01*
X44175238Y-24642380D01*
X44318095Y-24690000D01*
X44651428Y-24642380D02*
X44889523Y-25642380D01*
X45080000Y-24928095D01*
X45270476Y-25642380D01*
X45508571Y-24642380D01*
X45841904Y-24737619D02*
X45889523Y-24690000D01*
X45984761Y-24642380D01*
X46222857Y-24642380D01*
X46318095Y-24690000D01*
X46365714Y-24737619D01*
X46413333Y-24832857D01*
X46413333Y-24928095D01*
X46365714Y-25070952D01*
X45794285Y-25642380D01*
X46413333Y-25642380D01*
%TO.C,SW7*%
X43746666Y-42568761D02*
X43889523Y-42616380D01*
X44127619Y-42616380D01*
X44222857Y-42568761D01*
X44270476Y-42521142D01*
X44318095Y-42425904D01*
X44318095Y-42330666D01*
X44270476Y-42235428D01*
X44222857Y-42187809D01*
X44127619Y-42140190D01*
X43937142Y-42092571D01*
X43841904Y-42044952D01*
X43794285Y-41997333D01*
X43746666Y-41902095D01*
X43746666Y-41806857D01*
X43794285Y-41711619D01*
X43841904Y-41664000D01*
X43937142Y-41616380D01*
X44175238Y-41616380D01*
X44318095Y-41664000D01*
X44651428Y-41616380D02*
X44889523Y-42616380D01*
X45080000Y-41902095D01*
X45270476Y-42616380D01*
X45508571Y-41616380D01*
X45794285Y-41616380D02*
X46460952Y-41616380D01*
X46032380Y-42616380D01*
%TO.C,SW1*%
X25746666Y-37594761D02*
X25889523Y-37642380D01*
X26127619Y-37642380D01*
X26222857Y-37594761D01*
X26270476Y-37547142D01*
X26318095Y-37451904D01*
X26318095Y-37356666D01*
X26270476Y-37261428D01*
X26222857Y-37213809D01*
X26127619Y-37166190D01*
X25937142Y-37118571D01*
X25841904Y-37070952D01*
X25794285Y-37023333D01*
X25746666Y-36928095D01*
X25746666Y-36832857D01*
X25794285Y-36737619D01*
X25841904Y-36690000D01*
X25937142Y-36642380D01*
X26175238Y-36642380D01*
X26318095Y-36690000D01*
X26651428Y-36642380D02*
X26889523Y-37642380D01*
X27080000Y-36928095D01*
X27270476Y-37642380D01*
X27508571Y-36642380D01*
X28413333Y-37642380D02*
X27841904Y-37642380D01*
X28127619Y-37642380D02*
X28127619Y-36642380D01*
X28032380Y-36785238D01*
X27937142Y-36880476D01*
X27841904Y-36928095D01*
%TO.C,SW6*%
X25746666Y-54594761D02*
X25889523Y-54642380D01*
X26127619Y-54642380D01*
X26222857Y-54594761D01*
X26270476Y-54547142D01*
X26318095Y-54451904D01*
X26318095Y-54356666D01*
X26270476Y-54261428D01*
X26222857Y-54213809D01*
X26127619Y-54166190D01*
X25937142Y-54118571D01*
X25841904Y-54070952D01*
X25794285Y-54023333D01*
X25746666Y-53928095D01*
X25746666Y-53832857D01*
X25794285Y-53737619D01*
X25841904Y-53690000D01*
X25937142Y-53642380D01*
X26175238Y-53642380D01*
X26318095Y-53690000D01*
X26651428Y-53642380D02*
X26889523Y-54642380D01*
X27080000Y-53928095D01*
X27270476Y-54642380D01*
X27508571Y-53642380D01*
X28318095Y-53642380D02*
X28127619Y-53642380D01*
X28032380Y-53690000D01*
X27984761Y-53737619D01*
X27889523Y-53880476D01*
X27841904Y-54070952D01*
X27841904Y-54451904D01*
X27889523Y-54547142D01*
X27937142Y-54594761D01*
X28032380Y-54642380D01*
X28222857Y-54642380D01*
X28318095Y-54594761D01*
X28365714Y-54547142D01*
X28413333Y-54451904D01*
X28413333Y-54213809D01*
X28365714Y-54118571D01*
X28318095Y-54070952D01*
X28222857Y-54023333D01*
X28032380Y-54023333D01*
X27937142Y-54070952D01*
X27889523Y-54118571D01*
X27841904Y-54213809D01*
%TO.C,SW10*%
X97250476Y-43584761D02*
X97393333Y-43632380D01*
X97631428Y-43632380D01*
X97726666Y-43584761D01*
X97774285Y-43537142D01*
X97821904Y-43441904D01*
X97821904Y-43346666D01*
X97774285Y-43251428D01*
X97726666Y-43203809D01*
X97631428Y-43156190D01*
X97440952Y-43108571D01*
X97345714Y-43060952D01*
X97298095Y-43013333D01*
X97250476Y-42918095D01*
X97250476Y-42822857D01*
X97298095Y-42727619D01*
X97345714Y-42680000D01*
X97440952Y-42632380D01*
X97679047Y-42632380D01*
X97821904Y-42680000D01*
X98155238Y-42632380D02*
X98393333Y-43632380D01*
X98583809Y-42918095D01*
X98774285Y-43632380D01*
X99012380Y-42632380D01*
X99917142Y-43632380D02*
X99345714Y-43632380D01*
X99631428Y-43632380D02*
X99631428Y-42632380D01*
X99536190Y-42775238D01*
X99440952Y-42870476D01*
X99345714Y-42918095D01*
X100536190Y-42632380D02*
X100631428Y-42632380D01*
X100726666Y-42680000D01*
X100774285Y-42727619D01*
X100821904Y-42822857D01*
X100869523Y-43013333D01*
X100869523Y-43251428D01*
X100821904Y-43441904D01*
X100774285Y-43537142D01*
X100726666Y-43584761D01*
X100631428Y-43632380D01*
X100536190Y-43632380D01*
X100440952Y-43584761D01*
X100393333Y-43537142D01*
X100345714Y-43441904D01*
X100298095Y-43251428D01*
X100298095Y-43013333D01*
X100345714Y-42822857D01*
X100393333Y-42727619D01*
X100440952Y-42680000D01*
X100536190Y-42632380D01*
%TO.C,SW15*%
X97250476Y-60602761D02*
X97393333Y-60650380D01*
X97631428Y-60650380D01*
X97726666Y-60602761D01*
X97774285Y-60555142D01*
X97821904Y-60459904D01*
X97821904Y-60364666D01*
X97774285Y-60269428D01*
X97726666Y-60221809D01*
X97631428Y-60174190D01*
X97440952Y-60126571D01*
X97345714Y-60078952D01*
X97298095Y-60031333D01*
X97250476Y-59936095D01*
X97250476Y-59840857D01*
X97298095Y-59745619D01*
X97345714Y-59698000D01*
X97440952Y-59650380D01*
X97679047Y-59650380D01*
X97821904Y-59698000D01*
X98155238Y-59650380D02*
X98393333Y-60650380D01*
X98583809Y-59936095D01*
X98774285Y-60650380D01*
X99012380Y-59650380D01*
X99917142Y-60650380D02*
X99345714Y-60650380D01*
X99631428Y-60650380D02*
X99631428Y-59650380D01*
X99536190Y-59793238D01*
X99440952Y-59888476D01*
X99345714Y-59936095D01*
X100821904Y-59650380D02*
X100345714Y-59650380D01*
X100298095Y-60126571D01*
X100345714Y-60078952D01*
X100440952Y-60031333D01*
X100679047Y-60031333D01*
X100774285Y-60078952D01*
X100821904Y-60126571D01*
X100869523Y-60221809D01*
X100869523Y-60459904D01*
X100821904Y-60555142D01*
X100774285Y-60602761D01*
X100679047Y-60650380D01*
X100440952Y-60650380D01*
X100345714Y-60602761D01*
X100298095Y-60555142D01*
%TO.C,SW14*%
X79270476Y-58062761D02*
X79413333Y-58110380D01*
X79651428Y-58110380D01*
X79746666Y-58062761D01*
X79794285Y-58015142D01*
X79841904Y-57919904D01*
X79841904Y-57824666D01*
X79794285Y-57729428D01*
X79746666Y-57681809D01*
X79651428Y-57634190D01*
X79460952Y-57586571D01*
X79365714Y-57538952D01*
X79318095Y-57491333D01*
X79270476Y-57396095D01*
X79270476Y-57300857D01*
X79318095Y-57205619D01*
X79365714Y-57158000D01*
X79460952Y-57110380D01*
X79699047Y-57110380D01*
X79841904Y-57158000D01*
X80175238Y-57110380D02*
X80413333Y-58110380D01*
X80603809Y-57396095D01*
X80794285Y-58110380D01*
X81032380Y-57110380D01*
X81937142Y-58110380D02*
X81365714Y-58110380D01*
X81651428Y-58110380D02*
X81651428Y-57110380D01*
X81556190Y-57253238D01*
X81460952Y-57348476D01*
X81365714Y-57396095D01*
X82794285Y-57443714D02*
X82794285Y-58110380D01*
X82556190Y-57062761D02*
X82318095Y-57777047D01*
X82937142Y-57777047D01*
%TO.C,SW13*%
X61270476Y-52728761D02*
X61413333Y-52776380D01*
X61651428Y-52776380D01*
X61746666Y-52728761D01*
X61794285Y-52681142D01*
X61841904Y-52585904D01*
X61841904Y-52490666D01*
X61794285Y-52395428D01*
X61746666Y-52347809D01*
X61651428Y-52300190D01*
X61460952Y-52252571D01*
X61365714Y-52204952D01*
X61318095Y-52157333D01*
X61270476Y-52062095D01*
X61270476Y-51966857D01*
X61318095Y-51871619D01*
X61365714Y-51824000D01*
X61460952Y-51776380D01*
X61699047Y-51776380D01*
X61841904Y-51824000D01*
X62175238Y-51776380D02*
X62413333Y-52776380D01*
X62603809Y-52062095D01*
X62794285Y-52776380D01*
X63032380Y-51776380D01*
X63937142Y-52776380D02*
X63365714Y-52776380D01*
X63651428Y-52776380D02*
X63651428Y-51776380D01*
X63556190Y-51919238D01*
X63460952Y-52014476D01*
X63365714Y-52062095D01*
X64270476Y-51776380D02*
X64889523Y-51776380D01*
X64556190Y-52157333D01*
X64699047Y-52157333D01*
X64794285Y-52204952D01*
X64841904Y-52252571D01*
X64889523Y-52347809D01*
X64889523Y-52585904D01*
X64841904Y-52681142D01*
X64794285Y-52728761D01*
X64699047Y-52776380D01*
X64413333Y-52776380D01*
X64318095Y-52728761D01*
X64270476Y-52681142D01*
%TO.C,SW12*%
X43270476Y-59586761D02*
X43413333Y-59634380D01*
X43651428Y-59634380D01*
X43746666Y-59586761D01*
X43794285Y-59539142D01*
X43841904Y-59443904D01*
X43841904Y-59348666D01*
X43794285Y-59253428D01*
X43746666Y-59205809D01*
X43651428Y-59158190D01*
X43460952Y-59110571D01*
X43365714Y-59062952D01*
X43318095Y-59015333D01*
X43270476Y-58920095D01*
X43270476Y-58824857D01*
X43318095Y-58729619D01*
X43365714Y-58682000D01*
X43460952Y-58634380D01*
X43699047Y-58634380D01*
X43841904Y-58682000D01*
X44175238Y-58634380D02*
X44413333Y-59634380D01*
X44603809Y-58920095D01*
X44794285Y-59634380D01*
X45032380Y-58634380D01*
X45937142Y-59634380D02*
X45365714Y-59634380D01*
X45651428Y-59634380D02*
X45651428Y-58634380D01*
X45556190Y-58777238D01*
X45460952Y-58872476D01*
X45365714Y-58920095D01*
X46318095Y-58729619D02*
X46365714Y-58682000D01*
X46460952Y-58634380D01*
X46699047Y-58634380D01*
X46794285Y-58682000D01*
X46841904Y-58729619D01*
X46889523Y-58824857D01*
X46889523Y-58920095D01*
X46841904Y-59062952D01*
X46270476Y-59634380D01*
X46889523Y-59634380D01*
%TO.C,SW16*%
X90347724Y-95694450D02*
X90222060Y-95611479D01*
X89992077Y-95549856D01*
X89887760Y-95571203D01*
X89829439Y-95604874D01*
X89758793Y-95684543D01*
X89734143Y-95776535D01*
X89755490Y-95880853D01*
X89789162Y-95939174D01*
X89868830Y-96009820D01*
X90040491Y-96105116D01*
X90120160Y-96175761D01*
X90153831Y-96234083D01*
X90175178Y-96338400D01*
X90150529Y-96430393D01*
X90079883Y-96510061D01*
X90021562Y-96543733D01*
X89917244Y-96565080D01*
X89687262Y-96503457D01*
X89561597Y-96420486D01*
X89227297Y-96380209D02*
X89256134Y-95352660D01*
X88887277Y-95993308D01*
X88888162Y-95254062D01*
X88399361Y-96158365D01*
X87784247Y-94958269D02*
X88336204Y-95106166D01*
X88060226Y-95032217D02*
X87801407Y-95998143D01*
X87930374Y-95884803D01*
X88047016Y-95817460D01*
X88151334Y-95796113D01*
X86697491Y-95702350D02*
X86881477Y-95751649D01*
X86985795Y-95730302D01*
X87044116Y-95696630D01*
X87173083Y-95583290D01*
X87268379Y-95411629D01*
X87366976Y-95043657D01*
X87345629Y-94939340D01*
X87311957Y-94881018D01*
X87232289Y-94810373D01*
X87048303Y-94761074D01*
X86943986Y-94782421D01*
X86885665Y-94816092D01*
X86815019Y-94895761D01*
X86753395Y-95125743D01*
X86774742Y-95230061D01*
X86808414Y-95288382D01*
X86888082Y-95359028D01*
X87072068Y-95408327D01*
X87176386Y-95386980D01*
X87234707Y-95353308D01*
X87305353Y-95273640D01*
%TO.C,SW11*%
X25270476Y-71594761D02*
X25413333Y-71642380D01*
X25651428Y-71642380D01*
X25746666Y-71594761D01*
X25794285Y-71547142D01*
X25841904Y-71451904D01*
X25841904Y-71356666D01*
X25794285Y-71261428D01*
X25746666Y-71213809D01*
X25651428Y-71166190D01*
X25460952Y-71118571D01*
X25365714Y-71070952D01*
X25318095Y-71023333D01*
X25270476Y-70928095D01*
X25270476Y-70832857D01*
X25318095Y-70737619D01*
X25365714Y-70690000D01*
X25460952Y-70642380D01*
X25699047Y-70642380D01*
X25841904Y-70690000D01*
X26175238Y-70642380D02*
X26413333Y-71642380D01*
X26603809Y-70928095D01*
X26794285Y-71642380D01*
X27032380Y-70642380D01*
X27937142Y-71642380D02*
X27365714Y-71642380D01*
X27651428Y-71642380D02*
X27651428Y-70642380D01*
X27556190Y-70785238D01*
X27460952Y-70880476D01*
X27365714Y-70928095D01*
X28889523Y-71642380D02*
X28318095Y-71642380D01*
X28603809Y-71642380D02*
X28603809Y-70642380D01*
X28508571Y-70785238D01*
X28413333Y-70880476D01*
X28318095Y-70928095D01*
%TO.C,POWER SW*%
X121489479Y-88030770D02*
X120959711Y-87749087D01*
X121067018Y-87547270D01*
X121119072Y-87510230D01*
X121157713Y-87498416D01*
X121221580Y-87500016D01*
X121297262Y-87540256D01*
X121334302Y-87592310D01*
X121346116Y-87630951D01*
X121344516Y-87694818D01*
X121237208Y-87896635D01*
X121295047Y-87118410D02*
X121348701Y-87017502D01*
X121400755Y-86980461D01*
X121478036Y-86956834D01*
X121592358Y-86985261D01*
X121768948Y-87079155D01*
X121856442Y-87158036D01*
X121880070Y-87235317D01*
X121878470Y-87299185D01*
X121824816Y-87400093D01*
X121772762Y-87437134D01*
X121695481Y-87460761D01*
X121581159Y-87432334D01*
X121404569Y-87338440D01*
X121317075Y-87259559D01*
X121293447Y-87182278D01*
X121295047Y-87118410D01*
X121509663Y-86714777D02*
X122106499Y-86870324D01*
X121781747Y-86568214D01*
X122213807Y-86668508D01*
X121751105Y-86260690D01*
X122110684Y-86193008D02*
X122204578Y-86016418D01*
X122522316Y-86088285D02*
X122388182Y-86340556D01*
X121858413Y-86058873D01*
X121992548Y-85806602D01*
X122803999Y-85558517D02*
X122457834Y-85600971D01*
X122643038Y-85861241D02*
X122113269Y-85579559D01*
X122220577Y-85377742D01*
X122272631Y-85340701D01*
X122311272Y-85328888D01*
X122375139Y-85330488D01*
X122450820Y-85370728D01*
X122487861Y-85422782D01*
X122499675Y-85461422D01*
X122498075Y-85525290D01*
X122390767Y-85727107D01*
X123100696Y-84939653D02*
X123166163Y-84877386D01*
X123233231Y-84751250D01*
X123234830Y-84687383D01*
X123223017Y-84648742D01*
X123185976Y-84596688D01*
X123135522Y-84569861D01*
X123071654Y-84568261D01*
X123033014Y-84580075D01*
X122980960Y-84617115D01*
X122902079Y-84704610D01*
X122850025Y-84741651D01*
X122811384Y-84753465D01*
X122747517Y-84751865D01*
X122697063Y-84725038D01*
X122660022Y-84672984D01*
X122648208Y-84634343D01*
X122649808Y-84570476D01*
X122716875Y-84444340D01*
X122782343Y-84382072D01*
X122851010Y-84192069D02*
X123447846Y-84347617D01*
X123123094Y-84045507D01*
X123555154Y-84145800D01*
X123092453Y-83737982D01*
%TO.C,B+*%
X124385428Y-45931142D02*
X124471142Y-45959714D01*
X124499714Y-45988285D01*
X124528285Y-46045428D01*
X124528285Y-46131142D01*
X124499714Y-46188285D01*
X124471142Y-46216857D01*
X124414000Y-46245428D01*
X124185428Y-46245428D01*
X124185428Y-45645428D01*
X124385428Y-45645428D01*
X124442571Y-45674000D01*
X124471142Y-45702571D01*
X124499714Y-45759714D01*
X124499714Y-45816857D01*
X124471142Y-45874000D01*
X124442571Y-45902571D01*
X124385428Y-45931142D01*
X124185428Y-45931142D01*
X124785428Y-46016857D02*
X125242571Y-46016857D01*
X125014000Y-46245428D02*
X125014000Y-45788285D01*
%TO.C,B-*%
X112701428Y-45931142D02*
X112787142Y-45959714D01*
X112815714Y-45988285D01*
X112844285Y-46045428D01*
X112844285Y-46131142D01*
X112815714Y-46188285D01*
X112787142Y-46216857D01*
X112730000Y-46245428D01*
X112501428Y-46245428D01*
X112501428Y-45645428D01*
X112701428Y-45645428D01*
X112758571Y-45674000D01*
X112787142Y-45702571D01*
X112815714Y-45759714D01*
X112815714Y-45816857D01*
X112787142Y-45874000D01*
X112758571Y-45902571D01*
X112701428Y-45931142D01*
X112501428Y-45931142D01*
X113101428Y-46016857D02*
X113558571Y-46016857D01*
%TO.C,RSW2*%
X105762419Y-81001980D02*
X105429085Y-80525790D01*
X105190990Y-81001980D02*
X105190990Y-80001980D01*
X105571942Y-80001980D01*
X105667180Y-80049600D01*
X105714800Y-80097219D01*
X105762419Y-80192457D01*
X105762419Y-80335314D01*
X105714800Y-80430552D01*
X105667180Y-80478171D01*
X105571942Y-80525790D01*
X105190990Y-80525790D01*
X106190990Y-80478171D02*
X106524323Y-80478171D01*
X106667180Y-81001980D02*
X106190990Y-81001980D01*
X106190990Y-80001980D01*
X106667180Y-80001980D01*
X107048133Y-80954361D02*
X107190990Y-81001980D01*
X107429085Y-81001980D01*
X107524323Y-80954361D01*
X107571942Y-80906742D01*
X107619561Y-80811504D01*
X107619561Y-80716266D01*
X107571942Y-80621028D01*
X107524323Y-80573409D01*
X107429085Y-80525790D01*
X107238609Y-80478171D01*
X107143371Y-80430552D01*
X107095752Y-80382933D01*
X107048133Y-80287695D01*
X107048133Y-80192457D01*
X107095752Y-80097219D01*
X107143371Y-80049600D01*
X107238609Y-80001980D01*
X107476704Y-80001980D01*
X107619561Y-80049600D01*
X108048133Y-80478171D02*
X108381466Y-80478171D01*
X108524323Y-81001980D02*
X108048133Y-81001980D01*
X108048133Y-80001980D01*
X108524323Y-80001980D01*
X108810038Y-80001980D02*
X109381466Y-80001980D01*
X109095752Y-81001980D02*
X109095752Y-80001980D01*
%TO.C,SW17*%
X100659848Y-97842178D02*
X99793822Y-97342178D01*
X106555038Y-102631408D02*
X107238051Y-102448396D01*
X114668178Y-99579038D02*
X114418178Y-100012051D01*
X107738051Y-101582370D02*
X107238051Y-102448396D01*
X103773949Y-100448396D02*
X103956962Y-101131408D01*
X118918178Y-92217822D02*
X118418178Y-93083848D01*
X106793822Y-85217822D02*
X107659848Y-85717822D01*
X110421064Y-97935256D02*
X110771064Y-97329038D01*
X112318178Y-103649358D02*
X108421064Y-101399358D01*
X103956962Y-101131408D02*
X106555038Y-102631408D01*
X99793822Y-97342178D02*
X100293822Y-96476152D01*
X118052152Y-91717822D02*
X118918178Y-92217822D01*
X112618178Y-103129742D02*
X112318178Y-103649358D01*
X110771064Y-97329038D02*
X114668178Y-99579038D01*
X106206962Y-97234294D02*
X108372025Y-98484294D01*
X112418178Y-103476152D02*
X111918178Y-104342178D01*
X106293822Y-86083848D02*
X106793822Y-85217822D01*
X105523949Y-97417307D02*
X106206962Y-97234294D01*
X111918178Y-104342178D02*
X111052152Y-103842178D01*
X108421064Y-101399358D02*
G75*
G03*
X107738051Y-101582370I-250000J-433014D01*
G01*
X108372025Y-98484294D02*
G75*
G03*
X110421064Y-97935256I750000J1299039D01*
G01*
%TO.C,SW5*%
X105080000Y-28080000D02*
X106080000Y-28080000D01*
X97580000Y-26880000D02*
X97080000Y-27380000D01*
X92080000Y-33580000D02*
X92080000Y-33080000D01*
X97080000Y-28380000D02*
X97080000Y-27380000D01*
X101080000Y-27380000D02*
X100580000Y-26880000D01*
X92080000Y-42080000D02*
X92080000Y-41080000D01*
X106080000Y-42080000D02*
X105080000Y-42080000D01*
X96580000Y-32880000D02*
X96580000Y-33580000D01*
X92080000Y-28880000D02*
X96580000Y-28880000D01*
X100580000Y-26880000D02*
X97580000Y-26880000D01*
X106080000Y-28080000D02*
X106080000Y-29080000D01*
X93080000Y-42080000D02*
X92080000Y-42080000D01*
X92080000Y-29480000D02*
X92080000Y-28880000D01*
X96580000Y-33580000D02*
X92080000Y-33580000D01*
X100580000Y-31380000D02*
X98080000Y-31380000D01*
X92080000Y-29080000D02*
X92080000Y-28080000D01*
X106080000Y-41080000D02*
X106080000Y-42080000D01*
X101080000Y-30880000D02*
X100580000Y-31380000D01*
X92080000Y-28080000D02*
X93080000Y-28080000D01*
X96580000Y-28880000D02*
G75*
G03*
X97080000Y-28380000I-1J500001D01*
G01*
X98080000Y-31380000D02*
G75*
G03*
X96580000Y-32880000I1J-1500001D01*
G01*
%TO.C,SW4*%
X87080000Y-25580000D02*
X88080000Y-25580000D01*
X79580000Y-24380000D02*
X79080000Y-24880000D01*
X74080000Y-31080000D02*
X74080000Y-30580000D01*
X79080000Y-25880000D02*
X79080000Y-24880000D01*
X83080000Y-24880000D02*
X82580000Y-24380000D01*
X74080000Y-39580000D02*
X74080000Y-38580000D01*
X88080000Y-39580000D02*
X87080000Y-39580000D01*
X78580000Y-30380000D02*
X78580000Y-31080000D01*
X74080000Y-26380000D02*
X78580000Y-26380000D01*
X82580000Y-24380000D02*
X79580000Y-24380000D01*
X88080000Y-25580000D02*
X88080000Y-26580000D01*
X75080000Y-39580000D02*
X74080000Y-39580000D01*
X74080000Y-26980000D02*
X74080000Y-26380000D01*
X78580000Y-31080000D02*
X74080000Y-31080000D01*
X82580000Y-28880000D02*
X80080000Y-28880000D01*
X74080000Y-26580000D02*
X74080000Y-25580000D01*
X88080000Y-38580000D02*
X88080000Y-39580000D01*
X83080000Y-28380000D02*
X82580000Y-28880000D01*
X74080000Y-25580000D02*
X75080000Y-25580000D01*
X78580000Y-26380000D02*
G75*
G03*
X79080000Y-25880000I-1J500001D01*
G01*
X80080000Y-28880000D02*
G75*
G03*
X78580000Y-30380000I1J-1500001D01*
G01*
%TO.C,SW9*%
X87080000Y-42530000D02*
X88080000Y-42530000D01*
X79580000Y-41330000D02*
X79080000Y-41830000D01*
X74080000Y-48030000D02*
X74080000Y-47530000D01*
X79080000Y-42830000D02*
X79080000Y-41830000D01*
X83080000Y-41830000D02*
X82580000Y-41330000D01*
X74080000Y-56530000D02*
X74080000Y-55530000D01*
X88080000Y-56530000D02*
X87080000Y-56530000D01*
X78580000Y-47330000D02*
X78580000Y-48030000D01*
X74080000Y-43330000D02*
X78580000Y-43330000D01*
X82580000Y-41330000D02*
X79580000Y-41330000D01*
X88080000Y-42530000D02*
X88080000Y-43530000D01*
X75080000Y-56530000D02*
X74080000Y-56530000D01*
X74080000Y-43930000D02*
X74080000Y-43330000D01*
X78580000Y-48030000D02*
X74080000Y-48030000D01*
X82580000Y-45830000D02*
X80080000Y-45830000D01*
X74080000Y-43530000D02*
X74080000Y-42530000D01*
X88080000Y-55530000D02*
X88080000Y-56530000D01*
X83080000Y-45330000D02*
X82580000Y-45830000D01*
X74080000Y-42530000D02*
X75080000Y-42530000D01*
X78580000Y-43330000D02*
G75*
G03*
X79080000Y-42830000I-1J500001D01*
G01*
X80080000Y-45830000D02*
G75*
G03*
X78580000Y-47330000I1J-1500001D01*
G01*
%TO.C,SW3*%
X69080000Y-20080000D02*
X70080000Y-20080000D01*
X61580000Y-18880000D02*
X61080000Y-19380000D01*
X56080000Y-25580000D02*
X56080000Y-25080000D01*
X61080000Y-20380000D02*
X61080000Y-19380000D01*
X65080000Y-19380000D02*
X64580000Y-18880000D01*
X56080000Y-34080000D02*
X56080000Y-33080000D01*
X70080000Y-34080000D02*
X69080000Y-34080000D01*
X60580000Y-24880000D02*
X60580000Y-25580000D01*
X56080000Y-20880000D02*
X60580000Y-20880000D01*
X64580000Y-18880000D02*
X61580000Y-18880000D01*
X70080000Y-20080000D02*
X70080000Y-21080000D01*
X57080000Y-34080000D02*
X56080000Y-34080000D01*
X56080000Y-21480000D02*
X56080000Y-20880000D01*
X60580000Y-25580000D02*
X56080000Y-25580000D01*
X64580000Y-23380000D02*
X62080000Y-23380000D01*
X56080000Y-21080000D02*
X56080000Y-20080000D01*
X70080000Y-33080000D02*
X70080000Y-34080000D01*
X65080000Y-22880000D02*
X64580000Y-23380000D01*
X56080000Y-20080000D02*
X57080000Y-20080000D01*
X60580000Y-20880000D02*
G75*
G03*
X61080000Y-20380000I-1J500001D01*
G01*
X62080000Y-23380000D02*
G75*
G03*
X60580000Y-24880000I1J-1500001D01*
G01*
%TO.C,SW8*%
X69080000Y-37196000D02*
X70080000Y-37196000D01*
X61580000Y-35996000D02*
X61080000Y-36496000D01*
X56080000Y-42696000D02*
X56080000Y-42196000D01*
X61080000Y-37496000D02*
X61080000Y-36496000D01*
X65080000Y-36496000D02*
X64580000Y-35996000D01*
X56080000Y-51196000D02*
X56080000Y-50196000D01*
X70080000Y-51196000D02*
X69080000Y-51196000D01*
X60580000Y-41996000D02*
X60580000Y-42696000D01*
X56080000Y-37996000D02*
X60580000Y-37996000D01*
X64580000Y-35996000D02*
X61580000Y-35996000D01*
X70080000Y-37196000D02*
X70080000Y-38196000D01*
X57080000Y-51196000D02*
X56080000Y-51196000D01*
X56080000Y-38596000D02*
X56080000Y-37996000D01*
X60580000Y-42696000D02*
X56080000Y-42696000D01*
X64580000Y-40496000D02*
X62080000Y-40496000D01*
X56080000Y-38196000D02*
X56080000Y-37196000D01*
X70080000Y-50196000D02*
X70080000Y-51196000D01*
X65080000Y-39996000D02*
X64580000Y-40496000D01*
X56080000Y-37196000D02*
X57080000Y-37196000D01*
X60580000Y-37996000D02*
G75*
G03*
X61080000Y-37496000I-1J500001D01*
G01*
X62080000Y-40496000D02*
G75*
G03*
X60580000Y-41996000I1J-1500001D01*
G01*
%TO.C,SW2*%
X51080000Y-27080000D02*
X52080000Y-27080000D01*
X43580000Y-25880000D02*
X43080000Y-26380000D01*
X38080000Y-32580000D02*
X38080000Y-32080000D01*
X43080000Y-27380000D02*
X43080000Y-26380000D01*
X47080000Y-26380000D02*
X46580000Y-25880000D01*
X38080000Y-41080000D02*
X38080000Y-40080000D01*
X52080000Y-41080000D02*
X51080000Y-41080000D01*
X42580000Y-31880000D02*
X42580000Y-32580000D01*
X38080000Y-27880000D02*
X42580000Y-27880000D01*
X46580000Y-25880000D02*
X43580000Y-25880000D01*
X52080000Y-27080000D02*
X52080000Y-28080000D01*
X39080000Y-41080000D02*
X38080000Y-41080000D01*
X38080000Y-28480000D02*
X38080000Y-27880000D01*
X42580000Y-32580000D02*
X38080000Y-32580000D01*
X46580000Y-30380000D02*
X44080000Y-30380000D01*
X38080000Y-28080000D02*
X38080000Y-27080000D01*
X52080000Y-40080000D02*
X52080000Y-41080000D01*
X47080000Y-29880000D02*
X46580000Y-30380000D01*
X38080000Y-27080000D02*
X39080000Y-27080000D01*
X42580000Y-27880000D02*
G75*
G03*
X43080000Y-27380000I-1J500001D01*
G01*
X44080000Y-30380000D02*
G75*
G03*
X42580000Y-31880000I1J-1500001D01*
G01*
%TO.C,SW7*%
X51080000Y-44054000D02*
X52080000Y-44054000D01*
X43580000Y-42854000D02*
X43080000Y-43354000D01*
X38080000Y-49554000D02*
X38080000Y-49054000D01*
X43080000Y-44354000D02*
X43080000Y-43354000D01*
X47080000Y-43354000D02*
X46580000Y-42854000D01*
X38080000Y-58054000D02*
X38080000Y-57054000D01*
X52080000Y-58054000D02*
X51080000Y-58054000D01*
X42580000Y-48854000D02*
X42580000Y-49554000D01*
X38080000Y-44854000D02*
X42580000Y-44854000D01*
X46580000Y-42854000D02*
X43580000Y-42854000D01*
X52080000Y-44054000D02*
X52080000Y-45054000D01*
X39080000Y-58054000D02*
X38080000Y-58054000D01*
X38080000Y-45454000D02*
X38080000Y-44854000D01*
X42580000Y-49554000D02*
X38080000Y-49554000D01*
X46580000Y-47354000D02*
X44080000Y-47354000D01*
X38080000Y-45054000D02*
X38080000Y-44054000D01*
X52080000Y-57054000D02*
X52080000Y-58054000D01*
X47080000Y-46854000D02*
X46580000Y-47354000D01*
X38080000Y-44054000D02*
X39080000Y-44054000D01*
X42580000Y-44854000D02*
G75*
G03*
X43080000Y-44354000I-1J500001D01*
G01*
X44080000Y-47354000D02*
G75*
G03*
X42580000Y-48854000I1J-1500001D01*
G01*
%TO.C,SW1*%
X33080000Y-39080000D02*
X34080000Y-39080000D01*
X25580000Y-37880000D02*
X25080000Y-38380000D01*
X20080000Y-44580000D02*
X20080000Y-44080000D01*
X25080000Y-39380000D02*
X25080000Y-38380000D01*
X29080000Y-38380000D02*
X28580000Y-37880000D01*
X20080000Y-53080000D02*
X20080000Y-52080000D01*
X34080000Y-53080000D02*
X33080000Y-53080000D01*
X24580000Y-43880000D02*
X24580000Y-44580000D01*
X20080000Y-39880000D02*
X24580000Y-39880000D01*
X28580000Y-37880000D02*
X25580000Y-37880000D01*
X34080000Y-39080000D02*
X34080000Y-40080000D01*
X21080000Y-53080000D02*
X20080000Y-53080000D01*
X20080000Y-40480000D02*
X20080000Y-39880000D01*
X24580000Y-44580000D02*
X20080000Y-44580000D01*
X28580000Y-42380000D02*
X26080000Y-42380000D01*
X20080000Y-40080000D02*
X20080000Y-39080000D01*
X34080000Y-52080000D02*
X34080000Y-53080000D01*
X29080000Y-41880000D02*
X28580000Y-42380000D01*
X20080000Y-39080000D02*
X21080000Y-39080000D01*
X24580000Y-39880000D02*
G75*
G03*
X25080000Y-39380000I-1J500001D01*
G01*
X26080000Y-42380000D02*
G75*
G03*
X24580000Y-43880000I1J-1500001D01*
G01*
%TO.C,SW6*%
X33080000Y-56080000D02*
X34080000Y-56080000D01*
X25580000Y-54880000D02*
X25080000Y-55380000D01*
X20080000Y-61580000D02*
X20080000Y-61080000D01*
X25080000Y-56380000D02*
X25080000Y-55380000D01*
X29080000Y-55380000D02*
X28580000Y-54880000D01*
X20080000Y-70080000D02*
X20080000Y-69080000D01*
X34080000Y-70080000D02*
X33080000Y-70080000D01*
X24580000Y-60880000D02*
X24580000Y-61580000D01*
X20080000Y-56880000D02*
X24580000Y-56880000D01*
X28580000Y-54880000D02*
X25580000Y-54880000D01*
X34080000Y-56080000D02*
X34080000Y-57080000D01*
X21080000Y-70080000D02*
X20080000Y-70080000D01*
X20080000Y-57480000D02*
X20080000Y-56880000D01*
X24580000Y-61580000D02*
X20080000Y-61580000D01*
X28580000Y-59380000D02*
X26080000Y-59380000D01*
X20080000Y-57080000D02*
X20080000Y-56080000D01*
X34080000Y-69080000D02*
X34080000Y-70080000D01*
X29080000Y-58880000D02*
X28580000Y-59380000D01*
X20080000Y-56080000D02*
X21080000Y-56080000D01*
X24580000Y-56880000D02*
G75*
G03*
X25080000Y-56380000I-1J500001D01*
G01*
X26080000Y-59380000D02*
G75*
G03*
X24580000Y-60880000I1J-1500001D01*
G01*
%TO.C,SW10*%
X105060000Y-45070000D02*
X106060000Y-45070000D01*
X97560000Y-43870000D02*
X97060000Y-44370000D01*
X92060000Y-50570000D02*
X92060000Y-50070000D01*
X97060000Y-45370000D02*
X97060000Y-44370000D01*
X101060000Y-44370000D02*
X100560000Y-43870000D01*
X92060000Y-59070000D02*
X92060000Y-58070000D01*
X106060000Y-59070000D02*
X105060000Y-59070000D01*
X96560000Y-49870000D02*
X96560000Y-50570000D01*
X92060000Y-45870000D02*
X96560000Y-45870000D01*
X100560000Y-43870000D02*
X97560000Y-43870000D01*
X106060000Y-45070000D02*
X106060000Y-46070000D01*
X93060000Y-59070000D02*
X92060000Y-59070000D01*
X92060000Y-46470000D02*
X92060000Y-45870000D01*
X96560000Y-50570000D02*
X92060000Y-50570000D01*
X100560000Y-48370000D02*
X98060000Y-48370000D01*
X92060000Y-46070000D02*
X92060000Y-45070000D01*
X106060000Y-58070000D02*
X106060000Y-59070000D01*
X101060000Y-47870000D02*
X100560000Y-48370000D01*
X92060000Y-45070000D02*
X93060000Y-45070000D01*
X96560000Y-45870000D02*
G75*
G03*
X97060000Y-45370000I-1J500001D01*
G01*
X98060000Y-48370000D02*
G75*
G03*
X96560000Y-49870000I1J-1500001D01*
G01*
%TO.C,SW15*%
X105060000Y-62088000D02*
X106060000Y-62088000D01*
X97560000Y-60888000D02*
X97060000Y-61388000D01*
X92060000Y-67588000D02*
X92060000Y-67088000D01*
X97060000Y-62388000D02*
X97060000Y-61388000D01*
X101060000Y-61388000D02*
X100560000Y-60888000D01*
X92060000Y-76088000D02*
X92060000Y-75088000D01*
X106060000Y-76088000D02*
X105060000Y-76088000D01*
X96560000Y-66888000D02*
X96560000Y-67588000D01*
X92060000Y-62888000D02*
X96560000Y-62888000D01*
X100560000Y-60888000D02*
X97560000Y-60888000D01*
X106060000Y-62088000D02*
X106060000Y-63088000D01*
X93060000Y-76088000D02*
X92060000Y-76088000D01*
X92060000Y-63488000D02*
X92060000Y-62888000D01*
X96560000Y-67588000D02*
X92060000Y-67588000D01*
X100560000Y-65388000D02*
X98060000Y-65388000D01*
X92060000Y-63088000D02*
X92060000Y-62088000D01*
X106060000Y-75088000D02*
X106060000Y-76088000D01*
X101060000Y-64888000D02*
X100560000Y-65388000D01*
X92060000Y-62088000D02*
X93060000Y-62088000D01*
X96560000Y-62888000D02*
G75*
G03*
X97060000Y-62388000I-1J500001D01*
G01*
X98060000Y-65388000D02*
G75*
G03*
X96560000Y-66888000I1J-1500001D01*
G01*
%TO.C,SW14*%
X87080000Y-59548000D02*
X88080000Y-59548000D01*
X79580000Y-58348000D02*
X79080000Y-58848000D01*
X74080000Y-65048000D02*
X74080000Y-64548000D01*
X79080000Y-59848000D02*
X79080000Y-58848000D01*
X83080000Y-58848000D02*
X82580000Y-58348000D01*
X74080000Y-73548000D02*
X74080000Y-72548000D01*
X88080000Y-73548000D02*
X87080000Y-73548000D01*
X78580000Y-64348000D02*
X78580000Y-65048000D01*
X74080000Y-60348000D02*
X78580000Y-60348000D01*
X82580000Y-58348000D02*
X79580000Y-58348000D01*
X88080000Y-59548000D02*
X88080000Y-60548000D01*
X75080000Y-73548000D02*
X74080000Y-73548000D01*
X74080000Y-60948000D02*
X74080000Y-60348000D01*
X78580000Y-65048000D02*
X74080000Y-65048000D01*
X82580000Y-62848000D02*
X80080000Y-62848000D01*
X74080000Y-60548000D02*
X74080000Y-59548000D01*
X88080000Y-72548000D02*
X88080000Y-73548000D01*
X83080000Y-62348000D02*
X82580000Y-62848000D01*
X74080000Y-59548000D02*
X75080000Y-59548000D01*
X78580000Y-60348000D02*
G75*
G03*
X79080000Y-59848000I-1J500001D01*
G01*
X80080000Y-62848000D02*
G75*
G03*
X78580000Y-64348000I1J-1500001D01*
G01*
%TO.C,SW13*%
X69080000Y-54214000D02*
X70080000Y-54214000D01*
X61580000Y-53014000D02*
X61080000Y-53514000D01*
X56080000Y-59714000D02*
X56080000Y-59214000D01*
X61080000Y-54514000D02*
X61080000Y-53514000D01*
X65080000Y-53514000D02*
X64580000Y-53014000D01*
X56080000Y-68214000D02*
X56080000Y-67214000D01*
X70080000Y-68214000D02*
X69080000Y-68214000D01*
X60580000Y-59014000D02*
X60580000Y-59714000D01*
X56080000Y-55014000D02*
X60580000Y-55014000D01*
X64580000Y-53014000D02*
X61580000Y-53014000D01*
X70080000Y-54214000D02*
X70080000Y-55214000D01*
X57080000Y-68214000D02*
X56080000Y-68214000D01*
X56080000Y-55614000D02*
X56080000Y-55014000D01*
X60580000Y-59714000D02*
X56080000Y-59714000D01*
X64580000Y-57514000D02*
X62080000Y-57514000D01*
X56080000Y-55214000D02*
X56080000Y-54214000D01*
X70080000Y-67214000D02*
X70080000Y-68214000D01*
X65080000Y-57014000D02*
X64580000Y-57514000D01*
X56080000Y-54214000D02*
X57080000Y-54214000D01*
X60580000Y-55014000D02*
G75*
G03*
X61080000Y-54514000I-1J500001D01*
G01*
X62080000Y-57514000D02*
G75*
G03*
X60580000Y-59014000I1J-1500001D01*
G01*
%TO.C,SW12*%
X51080000Y-61072000D02*
X52080000Y-61072000D01*
X43580000Y-59872000D02*
X43080000Y-60372000D01*
X38080000Y-66572000D02*
X38080000Y-66072000D01*
X43080000Y-61372000D02*
X43080000Y-60372000D01*
X47080000Y-60372000D02*
X46580000Y-59872000D01*
X38080000Y-75072000D02*
X38080000Y-74072000D01*
X52080000Y-75072000D02*
X51080000Y-75072000D01*
X42580000Y-65872000D02*
X42580000Y-66572000D01*
X38080000Y-61872000D02*
X42580000Y-61872000D01*
X46580000Y-59872000D02*
X43580000Y-59872000D01*
X52080000Y-61072000D02*
X52080000Y-62072000D01*
X39080000Y-75072000D02*
X38080000Y-75072000D01*
X38080000Y-62472000D02*
X38080000Y-61872000D01*
X42580000Y-66572000D02*
X38080000Y-66572000D01*
X46580000Y-64372000D02*
X44080000Y-64372000D01*
X38080000Y-62072000D02*
X38080000Y-61072000D01*
X52080000Y-74072000D02*
X52080000Y-75072000D01*
X47080000Y-63872000D02*
X46580000Y-64372000D01*
X38080000Y-61072000D02*
X39080000Y-61072000D01*
X42580000Y-61872000D02*
G75*
G03*
X43080000Y-61372000I-1J500001D01*
G01*
X44080000Y-64372000D02*
G75*
G03*
X42580000Y-65872000I1J-1500001D01*
G01*
%TO.C,SW16*%
X83188712Y-92238567D02*
X82222786Y-91979747D01*
X90122573Y-95338820D02*
X90734945Y-94985267D01*
X97169252Y-90290622D02*
X97039843Y-90773585D01*
X90993764Y-94019341D02*
X90734945Y-94985267D01*
X86871242Y-93949991D02*
X87224795Y-94562363D01*
X99369214Y-82080253D02*
X99110395Y-83046178D01*
X85846253Y-78456786D02*
X86812178Y-78715605D01*
X92641413Y-89802084D02*
X92822586Y-89125936D01*
X95952803Y-94830473D02*
X91606136Y-93665788D01*
X87224795Y-94562363D02*
X90122573Y-95338820D01*
X82222786Y-91979747D02*
X82481605Y-91013822D01*
X98403288Y-81821433D02*
X99369214Y-82080253D01*
X96108094Y-94250918D02*
X95952803Y-94830473D01*
X92822586Y-89125936D02*
X97169252Y-90290622D01*
X88389481Y-90215697D02*
X90804295Y-90862745D01*
X96004567Y-94637288D02*
X95745747Y-95603214D01*
X85587433Y-79422712D02*
X85846253Y-78456786D01*
X87777108Y-90569250D02*
X88389481Y-90215697D01*
X95745747Y-95603214D02*
X94779822Y-95344395D01*
X91606136Y-93665788D02*
G75*
G03*
X90993764Y-94019341I-129408J-482964D01*
G01*
X90804295Y-90862745D02*
G75*
G03*
X92641413Y-89802084I388228J1448890D01*
G01*
%TO.C,SW11*%
X33080000Y-73080000D02*
X34080000Y-73080000D01*
X25580000Y-71880000D02*
X25080000Y-72380000D01*
X20080000Y-78580000D02*
X20080000Y-78080000D01*
X25080000Y-73380000D02*
X25080000Y-72380000D01*
X29080000Y-72380000D02*
X28580000Y-71880000D01*
X20080000Y-87080000D02*
X20080000Y-86080000D01*
X34080000Y-87080000D02*
X33080000Y-87080000D01*
X24580000Y-77880000D02*
X24580000Y-78580000D01*
X20080000Y-73880000D02*
X24580000Y-73880000D01*
X28580000Y-71880000D02*
X25580000Y-71880000D01*
X34080000Y-73080000D02*
X34080000Y-74080000D01*
X21080000Y-87080000D02*
X20080000Y-87080000D01*
X20080000Y-74480000D02*
X20080000Y-73880000D01*
X24580000Y-78580000D02*
X20080000Y-78580000D01*
X28580000Y-76380000D02*
X26080000Y-76380000D01*
X20080000Y-74080000D02*
X20080000Y-73080000D01*
X34080000Y-86080000D02*
X34080000Y-87080000D01*
X29080000Y-75880000D02*
X28580000Y-76380000D01*
X20080000Y-73080000D02*
X21080000Y-73080000D01*
X24580000Y-73880000D02*
G75*
G03*
X25080000Y-73380000I-1J500001D01*
G01*
X26080000Y-76380000D02*
G75*
G03*
X24580000Y-77880000I1J-1500001D01*
G01*
%TO.C,B+*%
X127492000Y-46974000D02*
X127492000Y-44974000D01*
X125492000Y-44974000D02*
X125492000Y-46974000D01*
X125492000Y-46974000D02*
X127492000Y-46974000D01*
X127492000Y-44974000D02*
X125492000Y-44974000D01*
%TO.C,B-*%
X112252000Y-44974000D02*
X110252000Y-44974000D01*
X110252000Y-46974000D02*
X112252000Y-46974000D01*
X110252000Y-44974000D02*
X110252000Y-46974000D01*
X112252000Y-46974000D02*
X112252000Y-44974000D01*
%TO.C,U1*%
X127762000Y-78232000D02*
X109982000Y-78232000D01*
X109982000Y-47752000D02*
X109982000Y-78232000D01*
X127762000Y-47752000D02*
X127762000Y-78232000D01*
X109982000Y-47752000D02*
X127762000Y-47752000D01*
D11*
%TO.C,RSW2*%
X110350000Y-83200000D02*
X113650000Y-83200000D01*
X110350000Y-80700000D02*
X110350000Y-80400000D01*
X113650000Y-80400000D02*
X113650000Y-80700000D01*
X113650000Y-83200000D02*
X113650000Y-82900000D01*
X110350000Y-80400000D02*
X113650000Y-80400000D01*
X110350000Y-82900000D02*
X110350000Y-83200000D01*
%TD*%
D12*
%TO.C,B+*%
X126492000Y-45974000D03*
%TD*%
%TO.C,B-*%
X111252000Y-45974000D03*
%TD*%
M02*
