M48
; DRILL file {KiCad (6.0.7-1)-1} date 2022 September 01, Thursday 14:33:56
; FORMAT={-:-/ absolute / inch / decimal}
; #@! TF.CreationDate,2022-09-01T14:33:56+02:00
; #@! TF.GenerationSoftware,Kicad,Pcbnew,(6.0.7-1)-1
; #@! TF.FileFunction,NonPlated,1,2,NPTH
FMAT,2
INCH
; #@! TA.AperFunction,NonPlated,NPTH,ComponentDrill
T1C0.0354
; #@! TA.AperFunction,NonPlated,NPTH,ComponentDrill
T2C0.0670
; #@! TA.AperFunction,NonPlated,NPTH,ComponentDrill
T3C0.1181
; #@! TA.AperFunction,NonPlated,NPTH,ComponentDrill
T4C0.1350
%
G90
G05
T1
X4.8227Y-3.4537
X4.8781Y-3.3494
T2
X0.8496Y-1.8142
X0.8496Y-2.4835
X0.8496Y-3.1528
X1.2827Y-1.8142
X1.2827Y-2.4835
X1.2827Y-3.1528
X1.5583Y-1.3417
X1.5583Y-2.01
X1.5583Y-2.68
X1.9913Y-1.3417
X1.9913Y-2.01
X1.9913Y-2.68
X2.2669Y-1.0661
X2.2669Y-1.74
X2.2669Y-2.41
X2.7Y-1.0661
X2.7Y-1.74
X2.7Y-2.41
X2.9756Y-1.2827
X2.9756Y-1.95
X2.9756Y-2.62
X3.3655Y-3.3703
X3.4087Y-1.2827
X3.4087Y-1.95
X3.4087Y-2.62
X3.6835Y-2.05
X3.6835Y-2.72
X3.6843Y-1.3811
X3.7838Y-3.4824
X4.1165Y-2.05
X4.1165Y-2.72
X4.1173Y-1.3811
X4.1178Y-3.6232
X4.4929Y-3.8398
T3
X0.8693Y-1.6665
X0.8693Y-2.3358
X0.8693Y-3.0051
X1.0661Y-1.5799
X1.0661Y-2.2492
X1.0661Y-2.9185
X1.263Y-1.6665
X1.263Y-2.3358
X1.263Y-3.0051
X1.578Y-1.1941
X1.578Y-1.8624
X1.578Y-2.5324
X1.7748Y-1.1075
X1.7748Y-1.7757
X1.7748Y-2.4457
X1.9717Y-1.1941
X1.9717Y-1.8624
X1.9717Y-2.5324
X2.2866Y-0.9185
X2.2866Y-1.5924
X2.2866Y-2.2624
X2.4835Y-0.8319
X2.4835Y-1.5057
X2.4835Y-2.1757
X2.6803Y-0.9185
X2.6803Y-1.5924
X2.6803Y-2.2624
X2.9953Y-1.135
X2.9953Y-1.8024
X2.9953Y-2.4724
X3.1921Y-1.0484
X3.1921Y-1.7157
X3.1921Y-2.3857
X3.3463Y-3.518
X3.389Y-1.135
X3.389Y-1.8024
X3.389Y-2.4724
X3.514Y-3.6526
X3.7031Y-1.9024
X3.7031Y-2.5724
X3.7039Y-1.2335
X3.7266Y-3.6199
X3.9Y-1.8157
X3.9Y-2.4857
X3.9008Y-1.1469
X4.0611Y-3.7609
X4.0969Y-1.9024
X4.0969Y-2.5724
X4.0976Y-1.2335
X4.1882Y-3.9344
X4.402Y-3.9578
T4
X1.0661Y-1.8142
X1.0661Y-2.4835
X1.0661Y-3.1528
X1.7748Y-1.3417
X1.7748Y-2.01
X1.7748Y-2.68
X2.4835Y-1.0661
X2.4835Y-1.74
X2.4835Y-2.41
X3.1921Y-1.2827
X3.1921Y-1.95
X3.1921Y-2.62
X3.5746Y-3.4264
X3.9Y-2.05
X3.9Y-2.72
X3.9008Y-1.3811
X4.3054Y-3.7315
T0
M30
