%TF.GenerationSoftware,KiCad,Pcbnew,(6.0.7-1)-1*%
%TF.CreationDate,2022-09-01T14:34:03+02:00*%
%TF.ProjectId,sweep_no_curve,73776565-705f-46e6-9f5f-63757276652e,rev?*%
%TF.SameCoordinates,Original*%
%TF.FileFunction,Profile,NP*%
%FSLAX46Y46*%
G04 Gerber Fmt 4.6, Leading zero omitted, Abs format (unit mm)*
G04 Created by KiCad (PCBNEW (6.0.7-1)-1) date 2022-09-01 14:34:03*
%MOMM*%
%LPD*%
G01*
G04 APERTURE LIST*
%TA.AperFunction,Profile*%
%ADD10C,0.050000*%
%TD*%
G04 APERTURE END LIST*
D10*
X109099962Y-26899997D02*
G75*
G03*
X108000000Y-25500000I-1307662J104697D01*
G01*
X89800000Y-25500000D02*
X108000000Y-25500000D01*
X89100059Y-24600005D02*
G75*
G03*
X89800000Y-25500000I840641J-68395D01*
G01*
X89100000Y-24000000D02*
X89100000Y-24600000D01*
X89099999Y-24000000D02*
G75*
G03*
X88000000Y-22900000I-1075640J24360D01*
G01*
X74000000Y-22900000D02*
X88000000Y-22900000D01*
X73100000Y-22000000D02*
G75*
G03*
X74000000Y-22900000I900000J0D01*
G01*
X73099999Y-18500000D02*
X73100000Y-22000000D01*
X73099999Y-18500000D02*
G75*
G03*
X72000000Y-17400000I-952218J147782D01*
G01*
X54000000Y-17400000D02*
X72000000Y-17400000D01*
X54000000Y-17400001D02*
G75*
G03*
X53007107Y-18407107I14315J-1007106D01*
G01*
X53000000Y-23100000D02*
X53007107Y-18407107D01*
X52000000Y-24100000D02*
G75*
G03*
X53000000Y-23100000I0J1000000D01*
G01*
X35900000Y-24100000D02*
X52000000Y-24100000D01*
X35900000Y-24100000D02*
G75*
G03*
X35000000Y-25000000I0J-900000D01*
G01*
X35000000Y-35000000D02*
X35000000Y-25000000D01*
X34000000Y-36000000D02*
G75*
G03*
X35000000Y-35000000I0J1000000D01*
G01*
X18000000Y-36036503D02*
X34000000Y-36000000D01*
X18000000Y-36036503D02*
G75*
G03*
X17059801Y-36976702I0J-940199D01*
G01*
X128599999Y-45300000D02*
G75*
G03*
X127651023Y-44357684I-948976J-6684D01*
G01*
X17059801Y-36976702D02*
X17100000Y-86245024D01*
X108800000Y-104600000D02*
G75*
G03*
X89409134Y-95561946I-36194371J-52333625D01*
G01*
X109099979Y-42473290D02*
G75*
G03*
X111134979Y-44404208I1999998J69999D01*
G01*
X108800000Y-104600000D02*
G75*
G03*
X115490848Y-104718633I3443790J5488500D01*
G01*
X89409134Y-95561946D02*
G75*
G03*
X20768000Y-88081119I-69219164J-316475414D01*
G01*
X17100000Y-86245024D02*
G75*
G03*
X20768000Y-88081119I3381100J2172624D01*
G01*
X128600000Y-45300000D02*
X128700000Y-77600000D01*
X109099978Y-42473290D02*
X109100000Y-26900000D01*
X111134979Y-44404208D02*
X127651023Y-44357684D01*
X128000000Y-81000000D02*
X115490848Y-104718633D01*
X128000000Y-81000000D02*
G75*
G03*
X128700000Y-77600000I-5074689J2816848D01*
G01*
M02*
