%TF.GenerationSoftware,KiCad,Pcbnew,(6.0.7-1)-1*%
%TF.CreationDate,2022-09-01T14:34:03+02:00*%
%TF.ProjectId,sweep_no_curve,73776565-705f-46e6-9f5f-63757276652e,rev?*%
%TF.SameCoordinates,Original*%
%TF.FileFunction,Soldermask,Top*%
%TF.FilePolarity,Negative*%
%FSLAX46Y46*%
G04 Gerber Fmt 4.6, Leading zero omitted, Abs format (unit mm)*
G04 Created by KiCad (PCBNEW (6.0.7-1)-1) date 2022-09-01 14:34:03*
%MOMM*%
%LPD*%
G01*
G04 APERTURE LIST*
G04 Aperture macros list*
%AMRotRect*
0 Rectangle, with rotation*
0 The origin of the aperture is its center*
0 $1 length*
0 $2 width*
0 $3 Rotation angle, in degrees counterclockwise*
0 Add horizontal line*
21,1,$1,$2,0,0,$3*%
%AMFreePoly0*
4,1,6,0.600000,0.200000,0.000000,-0.400000,-0.600000,0.200000,-0.600000,0.400000,0.600000,0.400000,0.600000,0.200000,0.600000,0.200000,$1*%
%AMFreePoly1*
4,1,6,0.600000,-0.250000,-0.600000,-0.250000,-0.600000,1.000000,0.000000,0.400000,0.600000,1.000000,0.600000,-0.250000,0.600000,-0.250000,$1*%
G04 Aperture macros list end*
%ADD10C,0.250000*%
%ADD11C,0.100000*%
%ADD12C,3.000000*%
%ADD13C,3.429000*%
%ADD14C,1.701800*%
%ADD15RotRect,2.600000X2.600000X150.000000*%
%ADD16C,2.032000*%
%ADD17R,2.600000X2.600000*%
%ADD18RotRect,2.600000X2.600000X165.000000*%
%ADD19RotRect,0.900000X1.250000X242.000000*%
%ADD20RotRect,0.900000X0.900000X242.000000*%
%ADD21C,1.000000*%
%ADD22C,1.397000*%
%ADD23C,1.600000*%
%ADD24FreePoly0,270.000000*%
%ADD25FreePoly0,90.000000*%
%ADD26R,1.600000X1.600000*%
%ADD27FreePoly1,90.000000*%
%ADD28FreePoly1,270.000000*%
%ADD29R,0.900000X1.700000*%
G04 APERTURE END LIST*
D10*
%TO.C,U1*%
X118235000Y-69342000D02*
G75*
G03*
X118235000Y-69342000I-125000J0D01*
G01*
X119759000Y-56642000D02*
G75*
G03*
X119759000Y-56642000I-125000J0D01*
G01*
X118235000Y-56642000D02*
G75*
G03*
X118235000Y-56642000I-125000J0D01*
G01*
X119759000Y-76962000D02*
G75*
G03*
X119759000Y-76962000I-125000J0D01*
G01*
X118235000Y-54102000D02*
G75*
G03*
X118235000Y-54102000I-125000J0D01*
G01*
X118235000Y-76962000D02*
G75*
G03*
X118235000Y-76962000I-125000J0D01*
G01*
X119759000Y-69342000D02*
G75*
G03*
X119759000Y-69342000I-125000J0D01*
G01*
X119759000Y-51562000D02*
G75*
G03*
X119759000Y-51562000I-125000J0D01*
G01*
X118235000Y-64262000D02*
G75*
G03*
X118235000Y-64262000I-125000J0D01*
G01*
X119759000Y-74422000D02*
G75*
G03*
X119759000Y-74422000I-125000J0D01*
G01*
X119759000Y-61722000D02*
G75*
G03*
X119759000Y-61722000I-125000J0D01*
G01*
X118235000Y-66802000D02*
G75*
G03*
X118235000Y-66802000I-125000J0D01*
G01*
X118235000Y-71882000D02*
G75*
G03*
X118235000Y-71882000I-125000J0D01*
G01*
X118235000Y-61722000D02*
G75*
G03*
X118235000Y-61722000I-125000J0D01*
G01*
X119759000Y-66802000D02*
G75*
G03*
X119759000Y-66802000I-125000J0D01*
G01*
X118235000Y-49022000D02*
G75*
G03*
X118235000Y-49022000I-125000J0D01*
G01*
X119759000Y-49022000D02*
G75*
G03*
X119759000Y-49022000I-125000J0D01*
G01*
X119759000Y-64262000D02*
G75*
G03*
X119759000Y-64262000I-125000J0D01*
G01*
X118235000Y-51562000D02*
G75*
G03*
X118235000Y-51562000I-125000J0D01*
G01*
X119759000Y-54102000D02*
G75*
G03*
X119759000Y-54102000I-125000J0D01*
G01*
X119759000Y-71882000D02*
G75*
G03*
X119759000Y-71882000I-125000J0D01*
G01*
X119759000Y-59182000D02*
G75*
G03*
X119759000Y-59182000I-125000J0D01*
G01*
X118235000Y-59182000D02*
G75*
G03*
X118235000Y-59182000I-125000J0D01*
G01*
X118235000Y-74422000D02*
G75*
G03*
X118235000Y-74422000I-125000J0D01*
G01*
G36*
X113792000Y-69850000D02*
G01*
X112776000Y-69850000D01*
X112776000Y-68834000D01*
X113792000Y-68834000D01*
X113792000Y-69850000D01*
G37*
D11*
X113792000Y-69850000D02*
X112776000Y-69850000D01*
X112776000Y-68834000D01*
X113792000Y-68834000D01*
X113792000Y-69850000D01*
G36*
X113792000Y-57150000D02*
G01*
X112776000Y-57150000D01*
X112776000Y-56134000D01*
X113792000Y-56134000D01*
X113792000Y-57150000D01*
G37*
X113792000Y-57150000D02*
X112776000Y-57150000D01*
X112776000Y-56134000D01*
X113792000Y-56134000D01*
X113792000Y-57150000D01*
G36*
X113792000Y-52070000D02*
G01*
X112776000Y-52070000D01*
X112776000Y-51054000D01*
X113792000Y-51054000D01*
X113792000Y-52070000D01*
G37*
X113792000Y-52070000D02*
X112776000Y-52070000D01*
X112776000Y-51054000D01*
X113792000Y-51054000D01*
X113792000Y-52070000D01*
G36*
X113792000Y-49530000D02*
G01*
X112776000Y-49530000D01*
X112776000Y-48514000D01*
X113792000Y-48514000D01*
X113792000Y-49530000D01*
G37*
X113792000Y-49530000D02*
X112776000Y-49530000D01*
X112776000Y-48514000D01*
X113792000Y-48514000D01*
X113792000Y-49530000D01*
G36*
X113792000Y-72390000D02*
G01*
X112776000Y-72390000D01*
X112776000Y-71374000D01*
X113792000Y-71374000D01*
X113792000Y-72390000D01*
G37*
X113792000Y-72390000D02*
X112776000Y-72390000D01*
X112776000Y-71374000D01*
X113792000Y-71374000D01*
X113792000Y-72390000D01*
G36*
X124968000Y-72390000D02*
G01*
X123952000Y-72390000D01*
X123952000Y-71374000D01*
X124968000Y-71374000D01*
X124968000Y-72390000D01*
G37*
X124968000Y-72390000D02*
X123952000Y-72390000D01*
X123952000Y-71374000D01*
X124968000Y-71374000D01*
X124968000Y-72390000D01*
G36*
X124968000Y-74930000D02*
G01*
X123952000Y-74930000D01*
X123952000Y-73914000D01*
X124968000Y-73914000D01*
X124968000Y-74930000D01*
G37*
X124968000Y-74930000D02*
X123952000Y-74930000D01*
X123952000Y-73914000D01*
X124968000Y-73914000D01*
X124968000Y-74930000D01*
G36*
X124968000Y-64770000D02*
G01*
X123952000Y-64770000D01*
X123952000Y-63754000D01*
X124968000Y-63754000D01*
X124968000Y-64770000D01*
G37*
X124968000Y-64770000D02*
X123952000Y-64770000D01*
X123952000Y-63754000D01*
X124968000Y-63754000D01*
X124968000Y-64770000D01*
G36*
X113792000Y-74930000D02*
G01*
X112776000Y-74930000D01*
X112776000Y-73914000D01*
X113792000Y-73914000D01*
X113792000Y-74930000D01*
G37*
X113792000Y-74930000D02*
X112776000Y-74930000D01*
X112776000Y-73914000D01*
X113792000Y-73914000D01*
X113792000Y-74930000D01*
G36*
X124968000Y-52070000D02*
G01*
X123952000Y-52070000D01*
X123952000Y-51054000D01*
X124968000Y-51054000D01*
X124968000Y-52070000D01*
G37*
X124968000Y-52070000D02*
X123952000Y-52070000D01*
X123952000Y-51054000D01*
X124968000Y-51054000D01*
X124968000Y-52070000D01*
G36*
X113792000Y-77470000D02*
G01*
X112776000Y-77470000D01*
X112776000Y-76454000D01*
X113792000Y-76454000D01*
X113792000Y-77470000D01*
G37*
X113792000Y-77470000D02*
X112776000Y-77470000D01*
X112776000Y-76454000D01*
X113792000Y-76454000D01*
X113792000Y-77470000D01*
G36*
X124968000Y-69850000D02*
G01*
X123952000Y-69850000D01*
X123952000Y-68834000D01*
X124968000Y-68834000D01*
X124968000Y-69850000D01*
G37*
X124968000Y-69850000D02*
X123952000Y-69850000D01*
X123952000Y-68834000D01*
X124968000Y-68834000D01*
X124968000Y-69850000D01*
G36*
X113792000Y-67310000D02*
G01*
X112776000Y-67310000D01*
X112776000Y-66294000D01*
X113792000Y-66294000D01*
X113792000Y-67310000D01*
G37*
X113792000Y-67310000D02*
X112776000Y-67310000D01*
X112776000Y-66294000D01*
X113792000Y-66294000D01*
X113792000Y-67310000D01*
G36*
X113792000Y-59690000D02*
G01*
X112776000Y-59690000D01*
X112776000Y-58674000D01*
X113792000Y-58674000D01*
X113792000Y-59690000D01*
G37*
X113792000Y-59690000D02*
X112776000Y-59690000D01*
X112776000Y-58674000D01*
X113792000Y-58674000D01*
X113792000Y-59690000D01*
G36*
X113792000Y-54610000D02*
G01*
X112776000Y-54610000D01*
X112776000Y-53594000D01*
X113792000Y-53594000D01*
X113792000Y-54610000D01*
G37*
X113792000Y-54610000D02*
X112776000Y-54610000D01*
X112776000Y-53594000D01*
X113792000Y-53594000D01*
X113792000Y-54610000D01*
G36*
X124968000Y-77470000D02*
G01*
X123952000Y-77470000D01*
X123952000Y-76454000D01*
X124968000Y-76454000D01*
X124968000Y-77470000D01*
G37*
X124968000Y-77470000D02*
X123952000Y-77470000D01*
X123952000Y-76454000D01*
X124968000Y-76454000D01*
X124968000Y-77470000D01*
G36*
X124968000Y-59690000D02*
G01*
X123952000Y-59690000D01*
X123952000Y-58674000D01*
X124968000Y-58674000D01*
X124968000Y-59690000D01*
G37*
X124968000Y-59690000D02*
X123952000Y-59690000D01*
X123952000Y-58674000D01*
X124968000Y-58674000D01*
X124968000Y-59690000D01*
G36*
X124968000Y-54610000D02*
G01*
X123952000Y-54610000D01*
X123952000Y-53594000D01*
X124968000Y-53594000D01*
X124968000Y-54610000D01*
G37*
X124968000Y-54610000D02*
X123952000Y-54610000D01*
X123952000Y-53594000D01*
X124968000Y-53594000D01*
X124968000Y-54610000D01*
G36*
X124968000Y-67310000D02*
G01*
X123952000Y-67310000D01*
X123952000Y-66294000D01*
X124968000Y-66294000D01*
X124968000Y-67310000D01*
G37*
X124968000Y-67310000D02*
X123952000Y-67310000D01*
X123952000Y-66294000D01*
X124968000Y-66294000D01*
X124968000Y-67310000D01*
G36*
X113792000Y-62230000D02*
G01*
X112776000Y-62230000D01*
X112776000Y-61214000D01*
X113792000Y-61214000D01*
X113792000Y-62230000D01*
G37*
X113792000Y-62230000D02*
X112776000Y-62230000D01*
X112776000Y-61214000D01*
X113792000Y-61214000D01*
X113792000Y-62230000D01*
G36*
X113792000Y-64770000D02*
G01*
X112776000Y-64770000D01*
X112776000Y-63754000D01*
X113792000Y-63754000D01*
X113792000Y-64770000D01*
G37*
X113792000Y-64770000D02*
X112776000Y-64770000D01*
X112776000Y-63754000D01*
X113792000Y-63754000D01*
X113792000Y-64770000D01*
G36*
X124968000Y-57150000D02*
G01*
X123952000Y-57150000D01*
X123952000Y-56134000D01*
X124968000Y-56134000D01*
X124968000Y-57150000D01*
G37*
X124968000Y-57150000D02*
X123952000Y-57150000D01*
X123952000Y-56134000D01*
X124968000Y-56134000D01*
X124968000Y-57150000D01*
G36*
X124968000Y-49530000D02*
G01*
X123952000Y-49530000D01*
X123952000Y-48514000D01*
X124968000Y-48514000D01*
X124968000Y-49530000D01*
G37*
X124968000Y-49530000D02*
X123952000Y-49530000D01*
X123952000Y-48514000D01*
X124968000Y-48514000D01*
X124968000Y-49530000D01*
G36*
X124968000Y-62230000D02*
G01*
X123952000Y-62230000D01*
X123952000Y-61214000D01*
X124968000Y-61214000D01*
X124968000Y-62230000D01*
G37*
X124968000Y-62230000D02*
X123952000Y-62230000D01*
X123952000Y-61214000D01*
X124968000Y-61214000D01*
X124968000Y-62230000D01*
%TD*%
D12*
%TO.C,SW17*%
X103150873Y-95527595D03*
D13*
X109356000Y-94780000D03*
D14*
X114119140Y-97530000D03*
D12*
X106381000Y-99932851D03*
D14*
X104592860Y-92030000D03*
D12*
X111811127Y-100527595D03*
D15*
X103544767Y-98295351D03*
D16*
X112306000Y-89670450D03*
D15*
X114647360Y-102165095D03*
D16*
X106925873Y-88989103D03*
X115586127Y-93989103D03*
%TD*%
D12*
%TO.C,SW5*%
X104080000Y-31330000D03*
D13*
X99080000Y-35080000D03*
D14*
X93580000Y-35080000D03*
D12*
X99080000Y-29130000D03*
D14*
X104580000Y-35080000D03*
D12*
X94080000Y-31330000D03*
D17*
X102355000Y-29130000D03*
D16*
X99080000Y-40980000D03*
D17*
X90805000Y-31330000D03*
D16*
X104080000Y-38880000D03*
X94080000Y-38880000D03*
%TD*%
D12*
%TO.C,SW4*%
X86080000Y-28830000D03*
D13*
X81080000Y-32580000D03*
D14*
X75580000Y-32580000D03*
D12*
X81080000Y-26630000D03*
D14*
X86580000Y-32580000D03*
D12*
X76080000Y-28830000D03*
D17*
X84355000Y-26630000D03*
D16*
X81080000Y-38480000D03*
D17*
X72805000Y-28830000D03*
D16*
X86080000Y-36380000D03*
X76080000Y-36380000D03*
%TD*%
D12*
%TO.C,SW9*%
X86080000Y-45780000D03*
D13*
X81080000Y-49530000D03*
D14*
X75580000Y-49530000D03*
D12*
X81080000Y-43580000D03*
D14*
X86580000Y-49530000D03*
D12*
X76080000Y-45780000D03*
D17*
X84355000Y-43580000D03*
D16*
X81080000Y-55430000D03*
D17*
X72805000Y-45780000D03*
D16*
X86080000Y-53330000D03*
X76080000Y-53330000D03*
%TD*%
D12*
%TO.C,SW3*%
X68080000Y-23330000D03*
D13*
X63080000Y-27080000D03*
D14*
X57580000Y-27080000D03*
D12*
X63080000Y-21130000D03*
D14*
X68580000Y-27080000D03*
D12*
X58080000Y-23330000D03*
D17*
X66355000Y-21130000D03*
D16*
X63080000Y-32980000D03*
D17*
X54805000Y-23330000D03*
D16*
X68080000Y-30880000D03*
X58080000Y-30880000D03*
%TD*%
D12*
%TO.C,SW8*%
X68080000Y-40446000D03*
D13*
X63080000Y-44196000D03*
D14*
X57580000Y-44196000D03*
D12*
X63080000Y-38246000D03*
D14*
X68580000Y-44196000D03*
D12*
X58080000Y-40446000D03*
D17*
X66355000Y-38246000D03*
D16*
X63080000Y-50096000D03*
D17*
X54805000Y-40446000D03*
D16*
X68080000Y-47996000D03*
X58080000Y-47996000D03*
%TD*%
D12*
%TO.C,SW2*%
X50080000Y-30330000D03*
D13*
X45080000Y-34080000D03*
D14*
X39580000Y-34080000D03*
D12*
X45080000Y-28130000D03*
D14*
X50580000Y-34080000D03*
D12*
X40080000Y-30330000D03*
D17*
X48355000Y-28130000D03*
D16*
X45080000Y-39980000D03*
D17*
X36805000Y-30330000D03*
D16*
X50080000Y-37880000D03*
X40080000Y-37880000D03*
%TD*%
D12*
%TO.C,SW7*%
X50080000Y-47304000D03*
D13*
X45080000Y-51054000D03*
D14*
X39580000Y-51054000D03*
D12*
X45080000Y-45104000D03*
D14*
X50580000Y-51054000D03*
D12*
X40080000Y-47304000D03*
D17*
X48355000Y-45104000D03*
D16*
X45080000Y-56954000D03*
D17*
X36805000Y-47304000D03*
D16*
X50080000Y-54854000D03*
X40080000Y-54854000D03*
%TD*%
D12*
%TO.C,SW1*%
X32080000Y-42330000D03*
D13*
X27080000Y-46080000D03*
D14*
X21580000Y-46080000D03*
D12*
X27080000Y-40130000D03*
D14*
X32580000Y-46080000D03*
D12*
X22080000Y-42330000D03*
D17*
X30355000Y-40130000D03*
D16*
X27080000Y-51980000D03*
D17*
X18805000Y-42330000D03*
D16*
X32080000Y-49880000D03*
X22080000Y-49880000D03*
%TD*%
D12*
%TO.C,SW6*%
X32080000Y-59330000D03*
D13*
X27080000Y-63080000D03*
D14*
X21580000Y-63080000D03*
D12*
X27080000Y-57130000D03*
D14*
X32580000Y-63080000D03*
D12*
X22080000Y-59330000D03*
D17*
X30355000Y-57130000D03*
D16*
X27080000Y-68980000D03*
D17*
X18805000Y-59330000D03*
D16*
X32080000Y-66880000D03*
X22080000Y-66880000D03*
%TD*%
D12*
%TO.C,SW10*%
X104060000Y-48320000D03*
D13*
X99060000Y-52070000D03*
D14*
X93560000Y-52070000D03*
D12*
X99060000Y-46120000D03*
D14*
X104560000Y-52070000D03*
D12*
X94060000Y-48320000D03*
D17*
X102335000Y-46120000D03*
D16*
X99060000Y-57970000D03*
D17*
X90785000Y-48320000D03*
D16*
X104060000Y-55870000D03*
X94060000Y-55870000D03*
%TD*%
D12*
%TO.C,SW15*%
X104060000Y-65338000D03*
D13*
X99060000Y-69088000D03*
D14*
X93560000Y-69088000D03*
D12*
X99060000Y-63138000D03*
D14*
X104560000Y-69088000D03*
D12*
X94060000Y-65338000D03*
D17*
X102335000Y-63138000D03*
D16*
X99060000Y-74988000D03*
D17*
X90785000Y-65338000D03*
D16*
X104060000Y-72888000D03*
X94060000Y-72888000D03*
%TD*%
D12*
%TO.C,SW14*%
X86080000Y-62798000D03*
D13*
X81080000Y-66548000D03*
D14*
X75580000Y-66548000D03*
D12*
X81080000Y-60598000D03*
D14*
X86580000Y-66548000D03*
D12*
X76080000Y-62798000D03*
D17*
X84355000Y-60598000D03*
D16*
X81080000Y-72448000D03*
D17*
X72805000Y-62798000D03*
D16*
X86080000Y-70348000D03*
X76080000Y-70348000D03*
%TD*%
D12*
%TO.C,SW13*%
X68080000Y-57464000D03*
D13*
X63080000Y-61214000D03*
D14*
X57580000Y-61214000D03*
D12*
X63080000Y-55264000D03*
D14*
X68580000Y-61214000D03*
D12*
X58080000Y-57464000D03*
D17*
X66355000Y-55264000D03*
D16*
X63080000Y-67114000D03*
D17*
X54805000Y-57464000D03*
D16*
X68080000Y-65014000D03*
X58080000Y-65014000D03*
%TD*%
D12*
%TO.C,SW12*%
X50080000Y-64322000D03*
D13*
X45080000Y-68072000D03*
D14*
X39580000Y-68072000D03*
D12*
X45080000Y-62122000D03*
D14*
X50580000Y-68072000D03*
D12*
X40080000Y-64322000D03*
D17*
X48355000Y-62122000D03*
D16*
X45080000Y-73972000D03*
D17*
X36805000Y-64322000D03*
D16*
X50080000Y-71872000D03*
X40080000Y-71872000D03*
%TD*%
D12*
%TO.C,SW16*%
X84995799Y-89358127D03*
D13*
X90796000Y-87030000D03*
D14*
X96108592Y-88453505D03*
D12*
X89256027Y-92777259D03*
D14*
X85483408Y-85606495D03*
D12*
X94655058Y-91946317D03*
D18*
X86092620Y-91929626D03*
D16*
X92323032Y-81331038D03*
D18*
X97818465Y-92793949D03*
D16*
X86949883Y-82065387D03*
X96609142Y-84653577D03*
%TD*%
D12*
%TO.C,SW11*%
X32080000Y-76330000D03*
D13*
X27080000Y-80080000D03*
D14*
X21580000Y-80080000D03*
D12*
X27080000Y-74130000D03*
D14*
X32580000Y-80080000D03*
D12*
X22080000Y-76330000D03*
D17*
X30355000Y-74130000D03*
D16*
X27080000Y-85980000D03*
D17*
X18805000Y-76330000D03*
D16*
X32080000Y-83880000D03*
X22080000Y-83880000D03*
%TD*%
D19*
%TO.C,POWER SW*%
X122424050Y-83439214D03*
X121719843Y-84763636D03*
X120311428Y-87412479D03*
D20*
X125908142Y-83649513D03*
X120491568Y-89150487D03*
X123965657Y-82616675D03*
X122434053Y-90183325D03*
D21*
X122495648Y-87724421D03*
X123904062Y-85075579D03*
%TD*%
D22*
%TO.C,B+*%
X126492000Y-45974000D03*
%TD*%
%TO.C,B-*%
X111252000Y-45974000D03*
%TD*%
D23*
%TO.C,U1*%
X111252000Y-74422000D03*
D24*
X124714000Y-69342000D03*
X124714000Y-54102000D03*
D23*
X126492000Y-64262000D03*
X111252000Y-51562000D03*
D25*
X113030000Y-51562000D03*
X113030000Y-59182000D03*
D23*
X126492000Y-49022000D03*
D25*
X113030000Y-74422000D03*
D23*
X111252000Y-54102000D03*
X126492000Y-51562000D03*
D24*
X124714000Y-64262000D03*
D23*
X126492000Y-69342000D03*
D26*
X111252000Y-49022000D03*
D25*
X113030000Y-56642000D03*
D23*
X111252000Y-59182000D03*
D25*
X113030000Y-49022000D03*
D23*
X126492000Y-66802000D03*
X126492000Y-56642000D03*
X126492000Y-74422000D03*
X111252000Y-61722000D03*
D24*
X124714000Y-74422000D03*
D25*
X113030000Y-54102000D03*
D24*
X124714000Y-59182000D03*
X124714000Y-61722000D03*
X124714000Y-71882000D03*
D25*
X113030000Y-76962000D03*
X113030000Y-71882000D03*
D23*
X111252000Y-69342000D03*
X126492000Y-76962000D03*
D25*
X113030000Y-69342000D03*
D23*
X111252000Y-66802000D03*
D24*
X124714000Y-51562000D03*
D25*
X113030000Y-64262000D03*
D23*
X111252000Y-56642000D03*
X126492000Y-61722000D03*
X126492000Y-54102000D03*
D24*
X124714000Y-49022000D03*
D23*
X126492000Y-71882000D03*
X126492000Y-59182000D03*
D25*
X113030000Y-61722000D03*
D23*
X111252000Y-64262000D03*
X111252000Y-76962000D03*
D25*
X113030000Y-66802000D03*
D24*
X124714000Y-76962000D03*
X124714000Y-66802000D03*
D23*
X111252000Y-71882000D03*
D24*
X124714000Y-56642000D03*
D23*
X111252000Y-49022000D03*
D27*
X114046000Y-49022000D03*
X114046000Y-51562000D03*
X114046000Y-54102000D03*
X114046000Y-56642000D03*
X114046000Y-59182000D03*
X114046000Y-61722000D03*
X114046000Y-64262000D03*
X114046000Y-66802000D03*
X114046000Y-69342000D03*
X114046000Y-71882000D03*
X114046000Y-74422000D03*
X114046000Y-76962000D03*
D28*
X123698000Y-76962000D03*
X123698000Y-74422000D03*
X123698000Y-71882000D03*
X123698000Y-69342000D03*
X123698000Y-66802000D03*
X123698000Y-64262000D03*
X123698000Y-61722000D03*
X123698000Y-59182000D03*
X123698000Y-56642000D03*
X123698000Y-54102000D03*
X123698000Y-51562000D03*
X123698000Y-49022000D03*
%TD*%
D29*
%TO.C,RSW2*%
X110300000Y-81800000D03*
X113700000Y-81800000D03*
%TD*%
M02*
