M48
; DRILL file {KiCad (6.0.7-1)-1} date 2022 September 01, Thursday 14:33:56
; FORMAT={-:-/ absolute / inch / decimal}
; #@! TF.CreationDate,2022-09-01T14:33:56+02:00
; #@! TF.GenerationSoftware,Kicad,Pcbnew,(6.0.7-1)-1
; #@! TF.FileFunction,Plated,1,2,PTH
FMAT,2
INCH
; #@! TA.AperFunction,Plated,PTH,ViaDrill
T1C0.0157
; #@! TA.AperFunction,Plated,PTH,ComponentDrill
T2C0.0157
; #@! TA.AperFunction,Plated,PTH,ComponentDrill
T3C0.0320
; #@! TA.AperFunction,Plated,PTH,ComponentDrill
T4C0.0433
; #@! TA.AperFunction,Plated,PTH,ComponentDrill
T5C0.0500
%
G90
G05
T1
X0.9764Y-1.6969
X1.7205Y-1.8976
X2.4213Y-1.6299
X3.122Y-1.8346
X4.0039Y-1.2992
X4.2874Y-2.9409
X4.2883Y-1.7838
X4.534Y-2.058
X4.6063Y-3.2165
X4.6535Y-3.2953
X4.6929Y-3.3268
X4.7677Y-3.1535
X4.8465Y-3.185
T2
X4.65Y-1.93
X4.65Y-2.03
X4.65Y-2.13
X4.65Y-2.23
X4.65Y-2.33
X4.65Y-2.43
X4.65Y-2.53
X4.65Y-2.63
X4.65Y-2.73
X4.65Y-2.83
X4.65Y-2.93
X4.65Y-3.03
X4.71Y-1.93
X4.71Y-2.03
X4.71Y-2.13
X4.71Y-2.23
X4.71Y-2.33
X4.71Y-2.43
X4.71Y-2.53
X4.71Y-2.63
X4.71Y-2.73
X4.71Y-2.83
X4.71Y-2.93
X4.71Y-3.03
T3
X4.38Y-1.81
X4.98Y-1.81
T4
X4.38Y-1.93
X4.38Y-1.93
X4.38Y-2.03
X4.38Y-2.13
X4.38Y-2.23
X4.38Y-2.33
X4.38Y-2.43
X4.38Y-2.53
X4.38Y-2.63
X4.38Y-2.73
X4.38Y-2.83
X4.38Y-2.93
X4.38Y-3.03
X4.98Y-1.93
X4.98Y-1.93
X4.98Y-2.03
X4.98Y-2.13
X4.98Y-2.23
X4.98Y-2.33
X4.98Y-2.43
X4.98Y-2.53
X4.98Y-2.63
X4.98Y-2.73
X4.98Y-2.83
X4.98Y-2.93
X4.98Y-3.03
T5
X0.8693Y-1.9638
X0.8693Y-2.6331
X0.8693Y-3.3024
X1.0661Y-2.0465
X1.0661Y-2.7157
X1.0661Y-3.385
X1.263Y-1.9638
X1.263Y-2.6331
X1.263Y-3.3024
X1.578Y-1.4913
X1.578Y-2.1596
X1.578Y-2.8296
X1.7748Y-1.574
X1.7748Y-2.2423
X1.7748Y-2.9123
X1.9717Y-1.4913
X1.9717Y-2.1596
X1.9717Y-2.8296
X2.2866Y-1.2157
X2.2866Y-1.8896
X2.2866Y-2.5596
X2.4835Y-1.2984
X2.4835Y-1.9723
X2.4835Y-2.6423
X2.6803Y-1.2157
X2.6803Y-1.8896
X2.6803Y-2.5596
X2.9953Y-1.4323
X2.9953Y-2.0996
X2.9953Y-2.7696
X3.1921Y-1.515
X3.1921Y-2.1823
X3.1921Y-2.8523
X3.389Y-1.4323
X3.389Y-2.0996
X3.389Y-2.7696
X3.4232Y-3.2309
X3.6348Y-3.202
X3.7031Y-2.1996
X3.7031Y-2.8696
X3.7039Y-1.5307
X3.8035Y-3.3328
X3.9Y-2.2823
X3.9Y-2.9523
X3.9008Y-1.6134
X4.0969Y-2.1996
X4.0969Y-2.8696
X4.0976Y-1.5307
X4.2097Y-3.5035
X4.4215Y-3.5303
X4.5506Y-3.7004
T0
M30
