%TF.GenerationSoftware,KiCad,Pcbnew,(6.0.7-1)-1*%
%TF.CreationDate,2022-09-01T14:34:03+02:00*%
%TF.ProjectId,sweep_no_curve,73776565-705f-46e6-9f5f-63757276652e,rev?*%
%TF.SameCoordinates,Original*%
%TF.FileFunction,Paste,Bot*%
%TF.FilePolarity,Positive*%
%FSLAX46Y46*%
G04 Gerber Fmt 4.6, Leading zero omitted, Abs format (unit mm)*
G04 Created by KiCad (PCBNEW (6.0.7-1)-1) date 2022-09-01 14:34:03*
%MOMM*%
%LPD*%
G01*
G04 APERTURE LIST*
G04 Aperture macros list*
%AMRotRect*
0 Rectangle, with rotation*
0 The origin of the aperture is its center*
0 $1 length*
0 $2 width*
0 $3 Rotation angle, in degrees counterclockwise*
0 Add horizontal line*
21,1,$1,$2,0,0,$3*%
G04 Aperture macros list end*
%ADD10RotRect,2.600000X2.600000X150.000000*%
%ADD11R,2.600000X2.600000*%
%ADD12RotRect,2.600000X2.600000X165.000000*%
%ADD13RotRect,0.900000X1.250000X242.000000*%
%ADD14RotRect,0.900000X0.900000X242.000000*%
%ADD15R,0.900000X1.700000*%
G04 APERTURE END LIST*
D10*
%TO.C,SW17*%
X109217233Y-101570351D03*
X100314640Y-93890095D03*
%TD*%
D11*
%TO.C,SW5*%
X95805000Y-29130000D03*
X107355000Y-31330000D03*
%TD*%
%TO.C,SW4*%
X77805000Y-26630000D03*
X89355000Y-28830000D03*
%TD*%
%TO.C,SW9*%
X77805000Y-43580000D03*
X89355000Y-45780000D03*
%TD*%
%TO.C,SW3*%
X59805000Y-21130000D03*
X71355000Y-23330000D03*
%TD*%
%TO.C,SW8*%
X59805000Y-38246000D03*
X71355000Y-40446000D03*
%TD*%
%TO.C,SW2*%
X41805000Y-28130000D03*
X53355000Y-30330000D03*
%TD*%
%TO.C,SW7*%
X41805000Y-45104000D03*
X53355000Y-47304000D03*
%TD*%
%TO.C,SW1*%
X23805000Y-40130000D03*
X35355000Y-42330000D03*
%TD*%
%TO.C,SW6*%
X23805000Y-57130000D03*
X35355000Y-59330000D03*
%TD*%
%TO.C,SW10*%
X95785000Y-46120000D03*
X107335000Y-48320000D03*
%TD*%
%TO.C,SW15*%
X95785000Y-63138000D03*
X107335000Y-65338000D03*
%TD*%
%TO.C,SW14*%
X77805000Y-60598000D03*
X89355000Y-62798000D03*
%TD*%
%TO.C,SW13*%
X59805000Y-55264000D03*
X71355000Y-57464000D03*
%TD*%
%TO.C,SW12*%
X41805000Y-62122000D03*
X53355000Y-64322000D03*
%TD*%
D12*
%TO.C,SW16*%
X92419434Y-93624891D03*
X81832392Y-88510494D03*
%TD*%
D11*
%TO.C,SW11*%
X23805000Y-74130000D03*
X35355000Y-76330000D03*
%TD*%
D13*
%TO.C,POWER SW*%
X120311428Y-87412479D03*
X121015636Y-86088058D03*
X122424050Y-83439214D03*
D14*
X123965657Y-82616675D03*
X120491568Y-89150487D03*
X125908142Y-83649513D03*
X122434053Y-90183325D03*
%TD*%
D15*
%TO.C,RSW2*%
X113700000Y-81800000D03*
X110300000Y-81800000D03*
%TD*%
M02*
